<svg width="375" height="812" viewBox="0 0 375 812" fill="none" xmlns="http://www.w3.org/2000/svg">
<g clip-path="url(#clip0_146_4571)">
<rect width="375" height="812" fill="url(#paint0_linear_146_4571)"/>
<path d="M-16.9313 9.53948C-17.7501 -56.0949 -116.508 -124.907 -140.821 -3.82424C-144.807 16.0292 -156.464 48.4411 -174.27 86.555C-190.58 121.469 -256.223 119.582 -291.358 159.492C-346.46 222.082 -260.261 311.824 -291.174 344.006C-331.663 386.157 -406.759 383.153 -454.009 396.925C-498.49 409.889 -536.091 443.189 -560.428 482.725C-603.125 552.087 -605 640.641 -531.582 672.253C-494.829 688.078 -439.209 689.633 -360.396 667.368C-325.159 657.413 -294.519 649.802 -267.782 644.373C-198.967 630.4 -244.384 706.885 -178.935 734.526C-141.642 750.276 -75.8127 694.099 -59.8101 742.982C-48.4314 777.741 -36.028 819.396 -13.4887 865.844C26.094 947.414 99.6114 984.476 141.553 904.489C161.352 866.73 174.114 802.889 172.949 705.334C172.203 642.905 223.668 664.143 255.607 596.316C287.545 528.489 250.339 477.989 296.658 462.166L297.585 461.849C332.889 449.792 370.542 436.932 403.094 397.514C431.134 363.56 444.126 324.46 442.799 290.23C441.379 253.596 423.558 222.54 390.229 209.337C356.787 196.09 307.733 200.817 243.97 235.92C201.929 259.064 211.304 172.478 155.56 161.053C99.8157 149.628 64.2 223.339 40.8044 189.478C0.164587 130.659 -15.9723 86.4089 -16.9313 9.53948Z" stroke="white" stroke-opacity="0.3" stroke-width="0.2"/>
<path d="M-26.3948 362.426C-26.4911 352.36 -43.0116 348.879 -47.3424 358.145C-52.2734 368.696 -52.0211 384.917 -56.6952 395.593C-65.7198 416.205 -75.3815 419.447 -94.3097 425.066C-101.092 427.074 -106.834 432.197 -110.559 438.27C-117.094 448.926 -117.418 462.507 -106.247 467.323C-100.655 469.734 -92.1817 469.948 -80.1653 466.5C-74.7928 464.958 -70.1216 463.777 -66.046 462.933C-48.0371 458.537 -37.4483 471.123 -34.405 477.965C-32.6866 483.291 -30.815 489.674 -27.4014 496.787C-21.4064 509.279 -6.82584 513.329 -3.79818 502.646C0.479089 487.554 -4.29988 423.541 25.424 423.688C39.2311 423.756 42.549 413.564 42.3616 408.315C42.1611 402.698 39.4596 397.943 34.3878 395.933C29.2989 393.916 17.683 399.182 12.0943 400.073C-8.53676 403.361 -25.6108 402.689 -26.3948 362.426Z" stroke="white" stroke-opacity="0.3" stroke-width="0.2"/>
<path d="M-131.807 27.9457C-109.263 -82.129 -19.0263 -19.2135 -18.2745 40.9568C-17.3198 114.531 -1.08494 154.857 37.767 208.08C59.3084 238.848 92.1031 171.647 143.208 181.937C194.313 192.228 186.164 270.933 224.646 249.969C283.124 218.216 328.003 214.346 358.45 226.907C388.784 239.156 404.93 267.761 405.994 301.379C406.972 332.811 394.763 368.612 368.624 399.499C336.046 435.656 301.895 453.027 269.145 465.444C226.865 480.321 260.319 526.416 230.827 588.014C201.334 649.611 154.039 629.912 154.445 686.147C155.195 774.262 143.412 831.769 125.241 865.641C86.9426 938.105 19.7399 903.944 -16.7572 829.416C-37.7464 786.843 -49.6827 748.757 -60.8542 717.329C-75.7855 672.929 -136.105 724.145 -170.525 709.952C-230.621 684.957 -189.764 615.442 -252.769 628.159C-277.488 633.103 -305.686 639.968 -338.002 648.915C-410.727 668.733 -461.308 666.09 -494.157 650.731C-560.789 621.694 -558.871 540.873 -519.774 477.561C-497.382 441.384 -462.887 410.927 -422.108 399.043C-377.398 386.011 -308.192 388.455 -270.539 348.247C-242.201 318.486 -320.534 236.227 -270.298 178.677C-238.229 141.761 -178.397 142.875 -163.335 110.633C-146.939 75.5384 -135.86 45.92 -131.807 27.9457Z" stroke="white" stroke-opacity="0.3" stroke-width="0.2"/>
<path d="M-125.421 60.5858C-104.747 -38.1308 -23.1466 18.7488 -22.4272 73.2707C-21.4321 143.319 -5.10259 179.607 31.9274 227.097C51.5964 254.691 81.4752 194.225 127.861 203.38C174.247 212.536 167.384 283.115 202.231 264.418C255.305 236.145 295.932 233.171 323.341 245.023C350.637 256.3 365.097 282.374 365.822 312.874C366.47 341.411 355.086 373.796 330.909 401.506C298.667 433.925 268.465 455.846 238.6 468.468C200.439 482.328 230.112 523.898 203.151 579.059C176.191 634.22 133.133 616.094 133.231 665.963C133.616 744.369 122.867 795.361 106.374 825.232C71.8248 889.929 11.0294 858.735 -22.3649 791.456C-41.7941 752.876 -53.266 718.468 -64.2299 690.459C-78.091 650.668 -132.768 696.73 -164.265 684.118C-218.922 661.808 -182.735 599.499 -239.817 610.884C-262.474 615.315 -288.178 621.395 -317.513 629.287C-384.016 646.555 -429.475 642.805 -458.375 627.941C-518.128 601.53 -516.217 528.691 -480.824 471.645C-460.436 438.952 -429.122 411.453 -392.12 400.709C-350.034 388.486 -286.835 390.404 -252.105 352.287C-226.409 325.056 -296.792 250.488 -251.541 198.183C-222.613 164.395 -168.695 164.768 -154.925 135.308C-139.988 103.351 -129.522 76.6236 -125.421 60.5858Z" stroke="white" stroke-opacity="0.3" stroke-width="0.2"/>
<path d="M-113.39 92.9313C-94.4817 5.22352 -21.4097 56.2041 -20.7584 105.261C-19.7658 172.014 -3.33695 204.377 31.905 246.272C49.718 270.773 76.7759 216.817 118.52 224.837C160.263 232.857 154.625 295.556 185.913 279.037C233.698 254.113 270.148 251.995 294.562 263.16C318.861 273.483 331.643 297.105 332.01 324.589C332.309 350.326 321.707 379.413 299.431 404.055C267.443 432.865 241.127 459.421 214.086 472.309C179.966 485.224 205.882 522.387 181.367 571.319C156.852 620.25 117.966 603.663 117.722 647.338C117.689 716.302 107.918 760.959 93.0522 786.944C62.1459 844.118 7.66961 815.827 -22.636 755.59C-40.5138 720.886 -51.5185 690.048 -62.2753 665.37C-75.0637 630.062 -124.229 671.163 -152.851 660.109C-202.151 640.446 -170.526 585.106 -221.794 595.237C-242.433 599.183 -265.695 604.516 -292.106 611.401C-352.52 626.223 -392.937 621.387 -417.93 606.99C-470.893 583.157 -468.936 518.052 -437.144 467.055C-418.701 437.722 -390.494 413.065 -357.195 403.401C-317.649 391.918 -260.345 393.275 -228.451 357.101C-205.332 332.29 -267.842 265.209 -227.458 217.944C-201.598 187.148 -153.496 186.748 -140.974 159.96C-127.447 131.022 -117.559 107.089 -113.39 92.9313Z" stroke="white" stroke-opacity="0.3" stroke-width="0.2"/>
<path d="M-103.567 125.001C-86.4043 48.3133 -22.0041 93.3413 -21.45 136.922C-20.5016 200.37 -4.01649 228.79 29.3597 265.057C45.2751 286.449 69.5006 239 106.532 245.858C143.564 252.717 139.125 307.522 166.813 293.168C209.249 271.573 241.466 270.292 262.838 280.754C284.097 290.107 295.168 311.264 295.161 335.726C295.094 358.658 285.276 384.445 264.92 406.027C233.219 431.241 210.812 462.451 186.628 475.621C156.596 487.608 178.693 520.342 156.634 563.044C134.575 605.747 99.9319 590.727 99.3208 628.194C98.8302 687.699 90.028 726.014 76.7987 748.113C49.5516 797.767 1.49595 772.416 -25.6395 719.255C-41.9183 688.444 -52.4215 661.19 -62.9408 639.855C-74.6168 609.048 -118.216 645.205 -143.912 635.729C-187.768 618.746 -160.724 570.372 -206.104 579.275C-224.695 582.748 -245.48 587.347 -268.93 593.237C-323.169 605.643 -358.477 599.743 -379.516 585.828C-425.59 564.607 -423.554 507.251 -395.384 462.298C-378.898 436.32 -353.828 414.496 -324.279 405.895C-287.327 395.13 -236.007 395.893 -206.977 361.647C-186.457 339.25 -240.957 279.706 -205.478 237.467C-182.708 209.657 -140.497 208.453 -129.227 184.338C-117.115 158.418 -107.805 137.279 -103.567 125.001Z" stroke="white" stroke-opacity="0.3" stroke-width="0.2"/>
<path d="M-94.1883 158.24C-78.8319 92.7348 -23.0899 131.768 -22.6019 169.787C-21.6545 229.802 -5.10101 254.234 26.4221 284.826C40.4504 303.077 61.8015 262.246 94.115 267.956C126.428 273.666 123.228 320.467 147.299 308.327C184.357 290.132 212.33 289.713 230.663 299.467C248.881 307.848 258.253 326.506 257.89 347.897C257.475 367.979 248.461 390.409 230.049 408.874C198.669 430.42 180.194 466.202 158.884 479.609C132.956 490.623 151.254 518.879 131.689 555.253C112.124 591.628 81.7232 578.179 80.7738 609.366C79.8702 659.294 72.0677 691.187 60.4949 709.348C36.951 751.365 -4.68792 728.97 -28.6828 682.968C-43.3792 656.101 -53.3958 632.477 -63.6884 614.52C-74.2701 588.265 -112.264 619.378 -135.034 611.479C-173.443 597.179 -151.022 555.884 -190.494 563.51C-207.029 566.49 -225.327 570.33 -245.805 575.198C-293.841 585.125 -324.035 578.147 -341.123 564.728C-380.313 546.128 -378.239 496.635 -353.732 457.834C-339.228 435.275 -317.317 416.344 -291.534 408.844C-257.197 398.845 -211.877 399.048 -185.746 366.821C-167.846 346.895 -214.364 294.967 -183.829 257.864C-164.176 233.111 -127.868 231.137 -117.871 209.749C-107.196 186.907 -98.4839 168.61 -94.1883 158.24Z" stroke="white" stroke-opacity="0.3" stroke-width="0.2"/>
<path d="M-87.3796 189.746C-73.7876 135.259 -26.5904 168.385 -26.1728 200.936C-25.2324 257.665 -8.57848 278.167 21.1546 303.155C33.3231 318.31 51.8513 283.993 79.5147 288.564C107.178 293.136 105.203 332.048 125.709 322.088C157.471 307.243 181.261 307.681 196.591 316.748C211.806 324.174 219.496 340.378 218.773 358.752C218.008 376.033 209.776 395.162 193.265 410.557C162.135 428.494 147.549 468.937 129.066 482.616C107.186 492.687 121.719 516.533 104.601 546.672C87.4824 576.811 61.2616 564.904 59.9673 589.888C58.6413 630.363 51.8171 655.914 41.8734 670.184C21.9764 704.67 -13.3316 685.182 -34.2304 646.231C-47.3719 623.243 -56.9201 603.191 -67.0055 588.57C-76.5118 566.803 -108.987 592.953 -128.876 586.616C-161.92 574.968 -144.067 540.648 -177.717 547.021C-192.23 549.517 -208.082 552.61 -225.633 556.471C-267.57 563.951 -292.713 555.884 -305.886 542.929C-338.272 526.91 -336.149 485.158 -315.246 452.409C-302.689 433.211 -283.889 417.125 -261.814 410.703C-230.019 401.441 -190.603 401.079 -167.309 370.787C-151.989 353.282 -190.616 308.849 -164.956 276.785C-148.374 255.026 -117.892 252.273 -109.144 233.557C-99.8793 213.736 -91.7437 198.234 -87.3796 189.746Z" stroke="white" stroke-opacity="0.3" stroke-width="0.2"/>
<path d="M-75.438 222.154C-63.5987 178.7 -25.0839 205.867 -24.765 232.936C-23.8873 286.37 -7.18884 302.917 20.6648 322.26C30.933 334.3 46.6228 306.497 69.568 309.904C92.5133 313.31 91.7375 344.317 108.638 336.525C135.041 325.011 154.59 326.289 166.874 334.654C179.045 341.111 185.022 354.849 183.925 370.199C182.795 384.674 175.348 400.502 160.766 412.836C129.945 427.186 119.237 472.31 103.609 486.278C85.8187 495.422 96.5334 514.836 81.8784 538.74C67.2233 562.644 45.2539 552.305 43.5988 571.073C41.8226 602.076 35.9733 621.276 27.6717 631.653C11.4409 658.609 -17.4369 642.063 -35.1588 610.196C-46.6955 591.107 -55.7363 574.647 -65.5793 563.378C-73.9705 546.119 -100.871 567.321 -117.83 562.566C-145.422 553.604 -132.151 526.262 -159.905 531.407C-172.366 533.431 -185.736 535.79 -200.321 538.655C-236.067 543.718 -256.09 534.579 -265.305 522.099C-290.798 508.693 -288.596 474.697 -271.321 447.998C-260.724 432.159 -245.066 418.907 -226.746 413.548C-197.558 404.995 -164.136 404.032 -143.706 375.661C-130.987 360.57 -161.597 323.679 -140.844 296.646C-127.352 277.873 -102.764 274.314 -95.2689 258.271C-87.4199 241.468 -79.8671 228.761 -75.438 222.154Z" stroke="white" stroke-opacity="0.3" stroke-width="0.2"/>
<path d="M-66.1813 254.011C-56.1164 221.597 -26.0527 242.887 -25.7814 264.489C-24.866 314.683 -8.003 327.31 18.151 341.063C26.5905 350.01 39.4667 328.738 57.8095 331.023C76.1523 333.307 76.6318 356.416 89.9926 350.821C111.142 342.685 126.545 344.843 135.854 352.537C145.049 358.051 149.365 369.343 147.915 381.675C146.441 393.349 139.771 405.871 127.067 415.121C96.4176 425.834 89.6196 475.689 76.7975 489.935C63.0293 498.128 70.0078 513.138 57.7885 530.787C45.5692 548.436 27.7269 539.619 25.7362 552.169C23.5564 573.701 18.6893 586.54 12.0094 593.01C-0.581741 612.411 -23.1958 598.744 -37.8852 573.916C-47.9091 558.697 -56.5197 545.803 -66.1933 537.867C-73.5431 525.095 -94.9589 541.309 -109.078 538.105C-131.366 531.777 -122.671 511.429 -144.651 515.296L-145.244 515.383C-155.53 516.887 -166.285 518.461 -177.748 520.27C-207.467 522.849 -222.479 512.586 -227.796 500.55C-246.538 489.703 -244.308 463.453 -230.627 442.824C-221.969 430.354 -209.401 419.96 -194.759 415.694C-168.044 407.896 -140.457 406.391 -122.841 379.949C-112.689 367.284 -135.49 337.861 -119.596 315.882C-109.166 300.108 -90.3623 295.782 -84.1132 282.414C-77.6726 268.635 -70.687 258.731 -66.1813 254.011Z" stroke="white" stroke-opacity="0.3" stroke-width="0.2"/>
<path d="M-56.8805 287.258C-48.6264 266.029 -27.2596 281.307 -27.0614 297.338C-26.1635 344.045 -9.26922 352.676 14.9817 360.746C21.5206 366.55 31.5127 351.898 45.1153 353.029C58.7178 354.16 60.4242 369.26 70.1538 365.875C85.9032 361.132 97.0445 364.142 103.303 371.117C109.448 375.652 112.057 384.437 110.252 393.693C108.43 402.512 102.572 411.673 91.8271 417.808C61.5543 424.861 58.6758 479.211 48.7398 493.678C39.0878 500.894 42.2599 511.42 32.5454 522.742C22.8308 534.065 9.25566 526.83 6.92753 533.105C4.33341 545.065 0.468244 551.488 -4.5493 554.026C-13.4302 565.794 -29.5989 555.098 -41.1209 537.443C-49.5429 526.176 -57.6477 516.92 -67.0737 512.364C-73.3143 504.149 -89.1054 515.319 -100.278 513.696C-117.091 510.057 -113.015 496.789 -129.063 499.384C-137.458 500.425 -145.907 501.269 -154.605 502.095C-178.084 502.209 -187.965 490.89 -189.33 479.366C-201.168 471.151 -198.897 452.772 -188.888 438.297C-182.218 429.248 -172.822 421.748 -161.96 418.58C-137.903 411.547 -116.351 409.478 -101.651 385.077C-94.1283 374.89 -108.918 353.102 -97.9778 336.266C-90.6703 323.556 -77.7874 318.462 -72.8155 307.828C-67.8158 297.133 -61.4366 290.072 -56.8805 287.258Z" stroke="white" stroke-opacity="0.3" stroke-width="0.2"/>
<path d="M-46.9024 319.529C-40.4406 309.406 -27.7023 318.721 -27.5775 329.228C-26.7056 372.55 -9.75759 377.211 12.6329 379.628C17.289 382.308 24.4236 374.226 33.3264 374.209C42.2292 374.192 45.1598 381.338 51.2875 380.148C61.6821 378.778 68.5955 382.642 71.824 388.914C74.9398 392.481 75.8544 398.786 73.6918 404.994C71.521 410.985 66.462 416.815 57.654 419.859C27.7156 423.285 28.7182 482.218 21.6378 496.934C16.0687 503.192 15.4562 509.269 8.22259 514.309C0.989005 519.349 -8.35587 513.679 -11.0209 513.711C-14.0284 516.154 -16.8994 516.194 -20.2673 514.818C-25.4655 519.001 -35.2393 511.246 -43.6236 500.707C-50.4619 493.361 -58.0737 487.713 -67.2668 486.52C-72.4121 482.832 -82.6257 488.997 -90.8804 488.948C-102.267 487.983 -102.784 481.748 -112.95 483.082C-119.294 483.637 -125.267 483.731 -131.005 483.544C-148.302 481.204 -153.085 468.81 -150.515 457.771C-155.498 452.163 -153.183 441.592 -146.814 433.223C-142.114 427.567 -135.862 422.935 -128.75 420.856C-107.305 414.568 -91.7303 411.93 -79.9076 389.514C-74.9901 381.775 -81.8239 367.556 -75.7991 355.813C-71.5883 346.132 -64.58 340.263 -60.8717 332.333C-57.2985 324.691 -51.5142 320.449 -46.9024 319.529Z" stroke="white" stroke-opacity="0.3" stroke-width="0.2"/>
</g>
<defs>
<linearGradient id="paint0_linear_146_4571" x1="-2.79397e-06" y1="406" x2="365.625" y2="406" gradientUnits="userSpaceOnUse">
<stop stop-color="#47248A"/>
<stop offset="1" stop-color="#1A4093"/>
</linearGradient>
<clipPath id="clip0_146_4571">
<rect width="375" height="812" fill="white"/>
</clipPath>
</defs>
</svg>
