<svg width="14" height="14" viewBox="0 0 14 14" fill="none" xmlns="http://www.w3.org/2000/svg">
<path d="M13.6668 7.00065V11.4451C13.6668 12.6705 12.67 13.6673 11.4446 13.6673H2.55572C1.33031 13.6673 0.333496 12.6705 0.333496 11.4451V2.55621C0.333496 1.3308 1.33031 0.333984 2.55572 0.333984H7.00016C7.40959 0.333984 7.7409 0.665651 7.7409 1.07473C7.7409 1.4838 7.40959 1.81547 7.00016 1.81547H2.55572C2.14701 1.81547 1.81498 2.14786 1.81498 2.55621V11.4451C1.81498 11.8534 2.14701 12.1858 2.55572 12.1858H11.4446C11.8533 12.1858 12.1853 11.8534 12.1853 11.4451V7.00065C12.1853 6.59158 12.5167 6.25991 12.9261 6.25991C13.3355 6.25991 13.6668 6.59158 13.6668 7.00065ZM12.9261 0.333984H9.96313C9.5537 0.333984 9.22238 0.665651 9.22238 1.07473C9.22238 1.4838 9.5537 1.81547 9.96313 1.81547H11.1379L4.25421 8.69915C3.96487 8.98849 3.96487 9.45725 4.25421 9.7466C4.39889 9.89127 4.58841 9.96361 4.77794 9.96361C4.96747 9.96361 5.15699 9.89127 5.30167 9.7466L12.1853 2.86292V4.03769C12.1853 4.44676 12.5167 4.77843 12.9261 4.77843C13.3355 4.77843 13.6668 4.44676 13.6668 4.03769V1.07473C13.6668 0.665651 13.3355 0.333984 12.9261 0.333984Z" fill="#363F72"/>
</svg>
