<svg width="73" height="72" viewBox="0 0 73 72" fill="none" xmlns="http://www.w3.org/2000/svg">
<path d="M27.5 53.25H45.5C46.1385 53.25 46.673 53.0345 47.1035 52.6035C47.5345 52.173 47.75 51.6385 47.75 51C47.75 50.3615 47.5345 49.827 47.1035 49.3965C46.673 48.9655 46.1385 48.75 45.5 48.75H27.5C26.8615 48.75 26.327 48.9655 25.8965 49.3965C25.4655 49.827 25.25 50.3615 25.25 51C25.25 51.6385 25.4655 52.173 25.8965 52.6035C26.327 53.0345 26.8615 53.25 27.5 53.25ZM27.5 41.25H45.5C46.1385 41.25 46.673 41.0345 47.1035 40.6035C47.5345 40.173 47.75 39.6385 47.75 39C47.75 38.3615 47.5345 37.827 47.1035 37.3965C46.673 36.9655 46.1385 36.75 45.5 36.75H27.5C26.8615 36.75 26.327 36.9655 25.8965 37.3965C25.4655 37.827 25.25 38.3615 25.25 39C25.25 39.6385 25.4655 40.173 25.8965 40.6035C26.327 41.0345 26.8615 41.25 27.5 41.25ZM19.4233 64.5C17.9077 64.5 16.625 63.975 15.575 62.925C14.525 61.875 14 60.5923 14 59.0768V12.9233C14 11.4077 14.525 10.125 15.575 9.075C16.625 8.025 17.9077 7.5 19.4233 7.5H41.006C41.729 7.5 42.4243 7.6405 43.0918 7.9215C43.7588 8.202 44.3385 8.5885 44.831 9.081L57.419 21.669C57.9115 22.1615 58.298 22.7412 58.5785 23.4082C58.8595 24.0758 59 24.771 59 25.494V59.0768C59 60.5923 58.475 61.875 57.425 62.925C56.375 63.975 55.0923 64.5 53.5768 64.5H19.4233ZM41 22.788V12H19.4233C19.1923 12 18.9808 12.0962 18.7888 12.2887C18.5963 12.4807 18.5 12.6923 18.5 12.9233V59.0768C18.5 59.3078 18.5963 59.5193 18.7888 59.7113C18.9808 59.9038 19.1923 60 19.4233 60H53.5768C53.8078 60 54.0193 59.9038 54.2113 59.7113C54.4038 59.5193 54.5 59.3078 54.5 59.0768V25.5H43.712C42.9385 25.5 42.2932 25.2413 41.7762 24.7238C41.2587 24.2068 41 23.5615 41 22.788Z" fill="black" fill-opacity="0.4"/>
</svg>
