<svg width="341" height="163" viewBox="0 0 341 163" fill="none" xmlns="http://www.w3.org/2000/svg">
<path d="M100.644 162.869C122.646 162.869 140.482 159.447 140.482 155.225C140.482 151.004 122.646 147.582 100.644 147.582C78.6416 147.582 60.8054 151.004 60.8054 155.225C60.8054 159.447 78.6416 162.869 100.644 162.869Z" fill="#A8DCE3"/>
<path d="M227.872 162.869C249.874 162.869 267.711 159.447 267.711 155.225C267.711 151.004 249.874 147.582 227.872 147.582C205.87 147.582 188.034 151.004 188.034 155.225C188.034 159.447 205.87 162.869 227.872 162.869Z" fill="#A8DCE3"/>
<path d="M175.905 120.035H164.58V149.555H175.905V120.035Z" fill="#90A3AB"/>
<path d="M175.906 93.3984H164.581V104.166H175.906V93.3984Z" fill="#54CDDE"/>
<path d="M175.906 106.932H164.581V117.699H175.906V106.932Z" fill="#54CDDE"/>
<path d="M175.905 120.455H164.58V131.223H175.905V120.455Z" fill="#54CDDE"/>
<path d="M336.56 140.072H21.9053V150.399H336.56V140.072Z" fill="#A8DCE3"/>
<path d="M318.234 15.7246H261.797V150.393H318.234V15.7246Z" fill="#54CDDE"/>
<path d="M262.216 22.8438V23.6663H304.126V22.8438H262.216ZM262.216 28.3097H304.126V27.4871H262.216V28.3097ZM262.216 32.9522H304.126V32.1297H262.216V32.9522ZM262.216 37.5943H304.126V36.7718H262.216V37.5943Z" fill="white"/>
<path d="M52.4731 0.03125H33.7302V150.019H52.4731V0.03125Z" fill="#54CDDE"/>
<path d="M74.175 15.3535H55.4321V150.022H74.175V15.3535Z" fill="#54CDDE"/>
<path d="M140.567 30.0556H95.2881V23.7734H140.567V30.0556ZM95.9843 29.4611H139.871V24.3679H95.9843V29.4611Z" fill="#90A3AB"/>
<path d="M154.359 39.8984H153.756V126.01H154.359V39.8984Z" fill="#90A3AB"/>
<path d="M162.754 39.8984H162.15V126.01H162.754V39.8984Z" fill="#90A3AB"/>
<path d="M160.647 58.166H160.043V126.011H160.647V58.166Z" fill="#90A3AB"/>
<path d="M165.615 29.332H153.71V22.3867H165.615V29.332ZM154.406 28.7371H164.918V22.9812H154.406V28.7371Z" fill="#90A3AB"/>
<path d="M311.055 47.3494H164.918V39.7539H301.454L301.555 39.8328L311.055 47.3494ZM165.614 46.755H309.278L301.182 40.3488H165.614V46.755Z" fill="#90A3AB"/>
<path d="M160.011 0.574219H159.314V22.6858H160.011V0.574219Z" fill="#90A3AB"/>
<path d="M296.941 40.1825L160.132 1.02568L165.606 22.6264L164.925 22.7518L159.193 0.128906L159.772 0.295213L297.161 39.6183L296.941 40.1825Z" fill="#90A3AB"/>
<path d="M157.367 5.55236L153.713 22.6406L154.398 22.7475L158.052 5.6592L157.367 5.55236Z" fill="#90A3AB"/>
<path d="M160.523 4.29073L159.829 4.35352L162.109 22.72L162.803 22.6572L160.523 4.29073Z" fill="#90A3AB"/>
<path d="M179.206 47.2484L172.212 40.504L165.53 47.2424L165 46.8595L172.201 39.5957L179.728 46.8535L179.206 47.2484Z" fill="#90A3AB"/>
<path d="M193.406 47.2484L186.412 40.504L179.732 47.2424L179.201 46.8595L186.401 39.5957L193.928 46.8535L193.406 47.2484Z" fill="#90A3AB"/>
<path d="M207.607 47.2484L200.613 40.504L193.933 47.2424L193.402 46.8595L200.602 39.5957L208.129 46.8535L207.607 47.2484Z" fill="#90A3AB"/>
<path d="M221.806 47.2484L214.814 40.504L208.132 47.2424L207.602 46.8595L214.804 39.5957L222.329 46.8535L221.806 47.2484Z" fill="#90A3AB"/>
<path d="M236.009 47.2484L229.016 40.504L222.334 47.2424L221.803 46.8595L229.005 39.5957L236.531 46.8535L236.009 47.2484Z" fill="#90A3AB"/>
<path d="M250.208 47.2484L243.214 40.504L236.534 47.2424L236.003 46.8595L243.204 39.5957L250.73 46.8535L250.208 47.2484Z" fill="#90A3AB"/>
<path d="M264.409 47.2484L257.415 40.504L250.735 47.2424L250.204 46.8595L257.405 39.5957L264.931 46.8535L264.409 47.2484Z" fill="#90A3AB"/>
<path d="M278.61 47.2484L271.618 40.504L264.936 47.2424L264.406 46.8595L271.607 39.5957L279.132 46.8535L278.61 47.2484Z" fill="#90A3AB"/>
<path d="M292.812 47.2484L285.819 40.504L279.136 47.2424L278.606 46.8595L285.808 39.5957L293.334 46.8535L292.812 47.2484Z" fill="#90A3AB"/>
<path d="M307.012 47.2484L300.019 40.504L293.338 47.2424L292.808 46.8595L300.008 39.5957L307.534 46.8535L307.012 47.2484Z" fill="#90A3AB"/>
<path d="M168.359 58.9663H151.441V46.9082H168.359V58.9663ZM152.137 58.3719H167.662V47.5031H152.137V58.3719Z" fill="#90A3AB"/>
<path d="M171.415 47.5066H148.382V39.5977H171.415V47.5066ZM149.079 46.9118H170.718V40.1921H149.079V46.9118Z" fill="#90A3AB"/>
<path d="M162.143 81.395L153.816 71.9044L154.298 71.5957L162.624 81.0863L162.143 81.395Z" fill="#90A3AB"/>
<path d="M154.298 81.395L153.816 81.0863L162.143 71.5957L162.624 71.9044L154.298 81.395Z" fill="#90A3AB"/>
<path d="M162.143 71.5721L153.817 62.0802L154.299 61.7715L162.625 71.2634L162.143 71.5721Z" fill="#90A3AB"/>
<path d="M154.299 71.5721L153.817 71.2634L162.143 61.7715L162.625 62.0802L154.299 71.5721Z" fill="#90A3AB"/>
<path d="M162.143 92.5842L153.817 83.0924L154.298 82.7832L162.624 92.2751L162.143 92.5842Z" fill="#90A3AB"/>
<path d="M154.298 92.5842L153.817 92.2751L162.143 82.7832L162.624 83.0924L154.298 92.5842Z" fill="#90A3AB"/>
<path d="M162.143 103.777L153.816 94.2853L154.298 93.9766L162.624 103.468L162.143 103.777Z" fill="#90A3AB"/>
<path d="M154.298 103.777L153.816 103.468L162.143 93.9766L162.624 94.2853L154.298 103.777Z" fill="#90A3AB"/>
<path d="M162.143 114.965L153.816 105.473L154.298 105.164L162.624 114.656L162.143 114.965Z" fill="#90A3AB"/>
<path d="M154.298 114.965L153.816 114.656L162.143 105.164L162.624 105.473L154.298 114.965Z" fill="#90A3AB"/>
<path d="M162.143 126.156L153.817 116.665L154.298 116.355L162.625 125.847L162.143 126.156Z" fill="#90A3AB"/>
<path d="M154.298 126.156L153.817 125.847L162.143 116.355L162.625 116.665L154.298 126.156Z" fill="#90A3AB"/>
<path d="M166.236 39.8906H132.161V22.1328H153.36L166.218 28.0836L166.236 39.8906Z" fill="#ABC3CB"/>
<path d="M145.887 23.6758H152.316L164.489 29.0253V38.5142H145.887V23.6758Z" fill="#F5FBFF"/>
<path d="M108.006 24.0703H107.31V29.758H108.006V24.0703Z" fill="#90A3AB"/>
<path d="M111.113 24.0703H110.417V29.758H111.113V24.0703Z" fill="#90A3AB"/>
<path d="M114.22 24.0703H113.524V29.758H114.22V24.0703Z" fill="#90A3AB"/>
<path d="M117.328 24.0703H116.632V29.758H117.328V24.0703Z" fill="#90A3AB"/>
<path d="M120.434 24.0703H119.738V29.758H120.434V24.0703Z" fill="#90A3AB"/>
<path d="M123.542 24.0703H122.846V29.758H123.542V24.0703Z" fill="#90A3AB"/>
<path d="M126.648 24.0703H125.952V29.758H126.648V24.0703Z" fill="#90A3AB"/>
<path d="M134.558 29.3635H135.548V23.6758H134.558V29.3635ZM138.976 29.3635H139.966V23.6758H138.976V29.3635ZM143.395 23.6762V29.3639H144.385V23.6762H143.395Z" fill="#F5FBFF"/>
<path d="M147.853 32.6992H146.806V38.3869H147.853V32.6992Z" fill="#BDF7FF"/>
<path d="M150.962 32.6992H149.915V38.3869H150.962V32.6992Z" fill="#BDF7FF"/>
<path d="M138.906 86.8535H123.19V94.3271H138.906V86.8535Z" fill="#90A3AB"/>
<path d="M138.906 80.1172H123.191V82.8433H138.906V80.1172Z" fill="#90A3AB"/>
<path d="M138.906 83.5391H123.191V86.2652H138.906V83.5391Z" fill="#90A3AB"/>
<path d="M138.905 86.957H123.19V89.6832H138.905V86.957Z" fill="#90A3AB"/>
<path d="M159.119 0.350342L99.8323 23.9121L99.9792 24.1816L159.266 0.619804L159.119 0.350342Z" fill="#90A3AB"/>
<path d="M237.045 58.5449H180.099V149.95H237.045V58.5449Z" fill="#4BAB8F"/>
<path d="M254.777 57.2539H241.067V148.659H254.777V57.2539Z" fill="#ABC3CB"/>
<path d="M258.105 148.659H253.773V57.2539L258.105 64.0068V148.659Z" fill="#90A3AB"/>
<path d="M278.49 148.659H274.159V57.2539L278.49 64.0068V148.659Z" fill="#90A3AB"/>
<path d="M274.482 57.2539H258.104V148.659H274.482V57.2539Z" fill="#ABC3CB"/>
<path d="M189.779 61.9668H187.057V99.1663H189.779V61.9668Z" fill="#BDF7FF"/>
<path d="M195.811 61.9668H193.088V99.1663H195.811V61.9668Z" fill="#BDF7FF"/>
<path d="M221.691 52.0471H253.314L250.594 17.5L220.126 22.8282L221.691 52.0471Z" fill="white"/>
<path d="M218.56 52.0471H186.937L189.657 17.5L220.126 22.8282L218.56 52.0471Z" fill="white"/>
<path d="M257.109 143.91L258.47 146.81L250.373 149.751L249.056 145.238L257.109 143.91Z" fill="#1A3342"/>
<path d="M232.228 18.8788C232.605 22.1977 233.088 24.9051 233.507 27.6368C233.507 27.6368 232.644 30.9101 227.859 31.0291C227.135 31.047 220.991 30.4704 221.762 27.624C222.17 26.117 222.703 22.8037 223.63 18.4238L232.228 18.8788Z" fill="#F89D83"/>
<path d="M229.077 7.84206C235.02 7.5845 233.985 13.047 233.985 13.047C233.985 13.047 233.798 18.2021 231.561 20.5381C230.201 21.959 228.881 19.4439 227.871 19.5283C226.879 19.3377 221.484 20.3718 221.695 18.5318C222.065 15.3101 222.835 12.4564 222.835 12.4564C222.835 12.4564 223.207 6.95935 229.077 7.84206Z" fill="#F89D83"/>
<path d="M233.95 13.6503C233.95 13.6503 234.633 13.4345 234.799 13.6951C234.965 13.956 235.05 14.9961 234.491 15.6669C233.931 16.3372 233.459 16.5961 233.459 16.5961L233.95 13.6503Z" fill="#F89D83"/>
<path d="M245.527 64.7566C245.527 64.7566 249.04 66.4747 253.537 100.231C254.286 105.856 260.169 120.89 258.735 145.512C258.735 145.512 250.571 147.363 249.644 147.247C247.994 147.04 238.107 118.703 235.986 110.783C233.866 102.864 230.742 86.3463 230.742 86.3463C230.742 86.3463 223.266 103.681 223.266 108.816C223.266 113.951 221.718 137.012 216.681 149.38L207.881 148.963C207.881 148.963 198.62 119.381 211.307 64.7566C212.971 57.5918 245.527 64.7566 245.527 64.7566Z" fill="#F5972E"/>
<path d="M211.306 62.7436C212.971 55.9421 245.526 62.7436 245.526 62.7436C245.526 62.7436 246.634 65.4954 248.022 70.0155C243.039 71.824 226.4 76.8669 209.426 70.9617C210.001 68.2808 210.62 65.5491 211.306 62.7436Z" fill="#D18127"/>
<path d="M220.827 25.0018C220.827 25.0018 236.163 25.6381 240.896 27.1988C243.109 27.9284 245.527 30.2742 245.527 32.0315C245.527 33.7888 245.527 64.7633 245.527 64.7633C245.527 64.7633 224.171 70.6945 211.307 64.7633L208.734 31.0264C208.734 31.0264 214.981 24.6564 220.827 25.0018Z" fill="#F5972E"/>
<path d="M187.783 25.0386C187.783 25.0386 186.117 24.9448 185.305 25.7358C184.988 26.0441 184.801 26.4872 184.892 27.1221C185.112 28.6487 185.155 29.1502 185.022 29.6931C184.32 32.5676 185.926 34.3365 185.926 34.3365C185.926 34.3365 190.309 33.1838 190.554 33.032C190.799 32.8798 191.291 29.5123 190.811 28.3707C189.625 25.5512 187.783 25.0386 187.783 25.0386Z" fill="#F89D83"/>
<path d="M186.968 28.9242C186.968 28.9242 186.723 24.7593 185.306 25.7418C182.926 27.3917 184.607 30.4927 185.288 30.6393C185.97 30.786 186.968 28.9242 186.968 28.9242Z" fill="#F89D83"/>
<path d="M186.579 39.5148L185.927 34.3452L190.628 33.002L192.083 37.6526L186.579 39.5148Z" fill="#F89D83"/>
<path d="M187.09 20.6895C186.304 20.6047 187.082 23.1773 187.71 24.93L189.341 24.9786C188.688 23.4984 187.578 20.7424 187.09 20.6895Z" fill="#F89D83"/>
<path d="M187.188 27.5144C187.847 27.7217 189.672 28.9276 189.672 28.9276C189.672 28.9276 189.436 25.7456 187.466 24.3947C186.716 23.8804 185.133 26.1332 185.133 26.1332C185.684 27.2556 186.925 27.4317 187.188 27.5144Z" fill="#F89D83"/>
<path d="M190.992 29.2876C190.992 29.2876 191.115 25.4412 190.494 25.3278C189.873 25.2139 188.996 26.4395 188.996 26.4395L190.992 29.2876Z" fill="#F89D83"/>
<path d="M189.34 24.9783L189.791 26.9514L187.47 26.0043L187.709 24.9297L189.34 24.9783Z" fill="#F89D83"/>
<path d="M252.861 25.8564C252.861 25.8564 252.263 25.0654 251.456 23.8923C251.212 23.5388 251.344 25.8329 251.392 26.4717C251.481 27.6482 249.602 27.9442 248.232 29.8345C246.423 32.3317 247.125 34.4455 247.125 34.4455C247.125 34.4455 250.476 33.6349 250.768 33.5684C251.061 33.5014 254.16 31.5863 254.192 30.3744C254.27 27.3783 252.861 25.8564 252.861 25.8564Z" fill="#F89D83"/>
<path d="M245.56 39.4708L247.125 34.4458L251.284 33.1699L251.48 39.4192L245.56 39.4708Z" fill="#F89D83"/>
<path d="M254.055 30.8407C254.055 30.8407 255.711 27.7253 255.179 27.4285C254.647 27.1321 253.313 28.0071 253.313 28.0071L254.055 30.8407Z" fill="#F89D83"/>
<path d="M251.455 23.8929C253.313 25.941 253.839 27.8118 253.839 27.8118L252.071 27.1359L251.455 26.0353C251.455 26.0353 251.071 23.4694 251.455 23.8929Z" fill="#F89D83"/>
<path d="M253.557 38.9219L252.558 54.2895L247.655 38.9219H253.557Z" fill="#203759"/>
<path d="M220.827 24.9961C220.827 24.9961 227.602 42.0686 206.671 55.0448C205.107 56.0145 198.682 53.9898 199.304 49.6057C199.926 45.2216 209.346 29.1751 209.677 28.8907C214.201 24.9961 215.838 25.3065 220.827 24.9961Z" fill="#38609D"/>
<path d="M190.591 32.9922L184.772 39.6398C184.772 39.6398 200.761 55.2181 204.797 55.2181L208.009 53.9307C208.009 53.9307 213.835 48.1155 190.591 32.9922Z" fill="#38609D"/>
<path d="M240.895 27.1914C240.895 27.1914 248.616 28.9355 250.276 37.8035C251.935 46.6715 252.558 54.2884 252.558 54.2884C252.558 54.2884 248.823 60.4878 243.014 57.8311C237.206 55.1736 240.895 27.1914 240.895 27.1914Z" fill="#38609D"/>
<path d="M250.954 29.863L250.585 29.7807C250.914 28.6916 253.558 27.5458 253.672 27.498L253.843 27.7884C253.12 28.0993 251.192 29.0763 250.954 29.863Z" fill="black"/>
<path d="M210.236 52.5419C210.236 52.5419 212.301 46.1894 212.703 40.5669C213.406 30.7262 212.703 27.8099 217.098 25.0394C217.098 25.0394 221.356 25.0163 222.242 25.0594C222.053 26.1383 222.33 27.6653 228.798 27.6653C233.26 27.6653 233.956 26.6598 234.153 25.9417C236.908 26.2415 239.418 26.7314 240.895 27.1941C241.17 27.2802 240.233 28.9719 241.475 37.7943C242.207 42.9886 245.644 46.6073 245.644 46.6073C246.331 54.4796 249.038 66.4763 249.038 66.4763C249.038 66.4763 228.886 76.5984 208.733 67.434L210.236 52.5419Z" fill="#F5972E"/>
<path d="M251.285 33.168L249.861 33.8102L251.392 36.5773L251.285 33.168Z" fill="#DB8B74"/>
<path d="M210.235 52.5381L215.059 46.6035L209.543 59.4949L210.235 52.5381Z" fill="#D18127"/>
<path d="M247.334 58.5742C247.684 60.4027 248.028 62.0338 248.316 63.3447C235.332 65.3101 224.728 66.7339 209.055 63.5856L209.461 58.7333C222.683 62.0031 234.808 60.471 247.334 58.5742Z" fill="white"/>
<path d="M246.196 51.7129C246.42 53.3414 246.679 54.9682 246.953 56.5153C234.597 58.2581 222.003 58.3038 209.635 56.645L210.041 51.7926C222.018 53.4442 234.225 53.4169 246.196 51.7129Z" fill="white"/>
<path d="M210.71 56.7727C210.415 56.7356 210.119 56.7087 209.825 56.6695L210.235 52.5425L210.772 51.8828C211.415 51.9677 212.059 52.0393 212.703 52.1148L210.71 56.7727Z" fill="#DBDBDB"/>
<path d="M245.505 45.7031L248.76 57.7962C248.192 58.0789 247.562 58.2887 246.886 58.4022L245.505 45.7031Z" fill="#203759"/>
<path d="M195.365 36.2559L193.863 38.9257L200.217 44.8817L202.396 41.9538L195.365 36.2559Z" fill="#38609D"/>
<path d="M232.478 19.5487C232.478 19.5487 230.814 20.9614 230.192 21.094C229.571 21.2271 228.995 21.526 228.995 21.526V20.8284L228.56 21.1606L227.664 20.3968L227.343 20.9947C227.343 20.9947 225.6 20.7862 224.634 18.7875C223.573 16.5935 223.867 13.0503 223.955 13.0576C223.955 13.0576 225.629 9.89049 229.153 10.8218C232.678 11.7531 233.951 13.6482 233.951 13.6482C233.951 13.6482 233.614 17.2745 233.266 18.1713C233.266 18.1713 233.267 18.918 232.478 19.5487Z" fill="#305D7A"/>
<path d="M223.037 10.9622C222.808 11.8688 224.242 11.4142 224.242 11.8479C224.242 13.2871 224.834 15.5817 229.011 15.9441C234.875 16.4529 233.81 14.8243 234.303 13.0419C235.427 8.97971 233.034 6.62199 229.986 6.18149C226.938 5.74099 223.85 7.74818 223.037 10.9622Z" fill="#F5972E"/>
<path d="M220.125 10.9322L224.525 11.9343L223.591 10.0742L220.125 10.9322Z" fill="#F5972E"/>
<path d="M223.368 10.0332L224.765 10.4281C225.59 10.5731 226.145 11.2204 226.056 11.9351L225.89 13.2851C228.37 15.4365 233.905 14.2203 234.114 14.1734C234.094 14.3239 234.071 14.4706 234.039 14.6092C233.519 14.7167 232.106 14.9742 230.493 14.9742C228.725 14.9742 226.735 14.6621 225.465 13.4962L225.391 13.4284L225.58 11.892C225.644 11.3871 225.252 10.93 224.643 10.8217L223.23 10.423C223.276 10.2929 223.315 10.159 223.368 10.0332Z" fill="black"/>
<path d="M229.442 7.87998L231.898 8.23477C231.972 8.24543 232.041 8.20321 232.054 8.1401L232.541 5.68089C232.554 5.6182 232.504 5.5585 232.431 5.54784L229.975 5.19305C229.901 5.18239 229.831 5.22461 229.819 5.28772L229.331 7.74651C229.318 7.80962 229.368 7.86932 229.442 7.87998Z" fill="#F5972E"/>
<path d="M229.6 6.15625L229.306 7.8594L229.012 6.24708C229.205 6.20657 229.401 6.17672 229.6 6.15625Z" fill="#BF433B"/>
<path d="M223.27 12.1308C223.27 12.1308 223.953 11.915 224.119 12.1755C224.284 12.4365 224.37 13.477 223.811 14.1473C223.251 14.8177 222.779 15.0765 222.779 15.0765L223.27 12.1308Z" fill="#F89D83"/>
<path d="M250.375 149.752L258.472 146.811C258.472 146.811 259.021 147.936 259.787 149.001C260.338 149.764 260.878 150.513 261.35 151.164C262.227 152.374 261.785 153.931 260.315 154.818C257.668 156.414 250.842 157.536 245.87 158.05L245.276 153.72C247.878 151.905 250.375 149.752 250.375 149.752Z" fill="#1A3342"/>
<path d="M241.461 153.917C242.615 153.987 244.195 153.85 245.8 153.635L245.869 158.05C240.265 157.627 238.726 155.591 238.729 155.363C238.738 154.77 238.386 153.729 241.461 153.917Z" fill="#1A3342"/>
<path d="M230.741 86.3468L234.353 82.8398L234.938 106.55L230.741 86.3468Z" fill="#1A3342"/>
<path d="M245.605 156.978L238.658 155.015L238.809 154.629L245.612 156.551L261.73 152.471L261.865 152.863L245.605 156.978Z" fill="white"/>
<path d="M207.882 148.965L216.681 149.382C216.681 149.382 216.419 151.769 216.89 152.953C217.228 153.802 217.562 154.634 217.852 155.358C218.393 156.704 217.558 158.138 215.893 158.725C212.898 159.78 205.95 159.582 200.969 159.142L201.514 154.806C207.669 154.641 207.882 148.965 207.882 148.965Z" fill="#1A3342"/>
<path d="M197.743 154.28C198.85 154.567 200.426 154.732 202.048 154.826L200.968 159.145C195.614 157.671 194.641 155.394 194.704 155.173C194.866 154.597 194.794 153.515 197.743 154.28Z" fill="#1A3342"/>
<path d="M200.988 158.052L200.924 158.018L194.725 154.821L194.972 154.473L201.107 157.635L217.884 156.709L217.916 157.114L200.988 158.052Z" fill="white"/>
<path d="M226.203 69.668C220.938 69.668 214.777 68.8445 208.646 66.1713L208.82 65.8809C224.55 72.74 240.493 67.3004 240.651 67.2442L240.795 67.5456C240.698 67.5798 234.585 69.668 226.203 69.668Z" fill="black"/>
<path d="M212.939 36.7324C212.939 36.7324 212.939 53.4318 206.672 55.0514C204.226 55.6833 201.971 54.1482 201.941 54.2113" fill="#38609D"/>
<path d="M223.374 107.398H218.016V107.725H223.374V107.398Z" fill="black"/>
<path d="M217.162 147.498H207.666V147.824H217.162V147.498Z" fill="black"/>
<path d="M258.82 142.65L249.794 144.51L249.884 144.828L258.91 142.968L258.82 142.65Z" fill="black"/>
<path d="M234.49 82.9607L234.218 82.7334C239.125 78.4448 238.886 73.8066 238.883 73.7614L239.265 73.7422C239.267 73.7904 239.523 78.5655 234.49 82.9607Z" fill="black"/>
<path d="M245.339 43.5872L242.986 33.1998L243.362 33.1367L245.714 43.5241L245.339 43.5872Z" fill="black"/>
<path d="M233.46 22.207H222.777L220.826 24.9954L234.154 25.9421L233.46 22.207Z" fill="#38609D"/>
<path d="M233.965 25.9668L233.271 22.2317L233.649 22.1797L234.344 25.9148L233.965 25.9668Z" fill="black"/>
<path d="M238.008 26.6797C233.634 25.704 222.694 25.2929 222.585 25.2891L222.601 24.9629C222.712 24.9672 233.692 25.3795 238.104 26.3646L238.008 26.6797Z" fill="black"/>
<path d="M202.213 41.8913L199.746 46.9258L200.099 47.0518L202.566 42.0173L202.213 41.8913Z" fill="black"/>
<path d="M151.441 95.25H122.846V150.397H151.441V95.25Z" fill="#54CDDE"/>
<path d="M163.497 126.004H134.902V150.398H163.497V126.004Z" fill="#90A3AB"/>
<path d="M55.4321 15.3535L52.4729 21.3862V150.022H55.4321V15.3535Z" fill="#90A3AB"/>
<path d="M99.0347 20.8988L100.487 20.6621L99.7559 23.265L99.0347 20.8988Z" fill="#E6E6E6"/>
<path d="M120.5 48.6641L123.532 82.1558C123.532 82.1558 119.096 85.3101 115.773 83.3178C112.45 81.3256 110.254 23.8613 110.254 23.8613C110.254 23.8613 119.246 39.2818 120.5 48.6641Z" fill="#5E6163"/>
<path d="M115.258 150.124C115.258 150.124 122.488 154.993 125.842 155.482C126.427 155.567 126.891 156.027 126.886 156.605C126.881 157.179 126.491 157.824 124.953 158.109C122.687 158.528 112.836 157.703 107.797 157.239C106.081 157.081 104.86 155.934 104.933 154.549C104.972 153.803 105.016 152.946 105.059 152.073C105.12 150.856 104.635 146.754 104.635 146.754L113.083 146.872L115.258 150.124Z" fill="#1A3342"/>
<path d="M97.8916 153.347C97.8916 153.347 105.122 158.216 108.476 158.704C109.061 158.79 109.525 159.25 109.52 159.828C109.515 160.402 109.125 161.047 107.586 161.331C105.321 161.751 95.4703 160.926 90.4308 160.462C88.7142 160.303 87.4936 159.157 87.5665 157.771C87.6054 157.025 87.6494 156.169 87.6928 155.296C87.7533 154.078 87.2683 149.977 87.2683 149.977L95.7165 150.095L97.8916 153.347Z" fill="#1A3342"/>
<path d="M107.229 83.7825C108.218 89.3943 105.553 97.2214 105.235 102.221C104.919 107.22 97.859 133.878 104.782 149.763L115.453 147.96L121.787 57.6172L115.815 59.0854L107.398 57.1328C107.398 57.1328 105.867 76.0577 107.229 83.7825Z" fill="#686A6E"/>
<path d="M85.4444 86.9069C85.8274 92.575 85.8624 106.139 85.0108 111.092C84.1593 116.044 83.2703 138.409 86.4278 151.978L97.4437 150.197L114.887 63.1595L96.6415 63.0094L88.4715 60.3848C88.4715 60.3848 84.9169 79.105 85.4444 86.9069Z" fill="#83868B"/>
<path d="M158.615 34.057C158.615 34.057 160.152 38.4859 159.256 38.8701C155.451 40.502 152.254 40.0074 152.254 40.0074C152.254 40.0074 151.154 36.5183 151.173 36.2804C151.192 36.042 152.231 34.5005 153.419 34.0284C154.608 33.5572 158.615 34.057 158.615 34.057Z" fill="#F89D83"/>
<path d="M151.93 35.1439C151.93 35.1439 154.714 31.6319 155.16 31.8732C155.606 32.1146 154.993 33.8233 154.993 33.8233L151.93 35.1439Z" fill="#F89D83"/>
<path d="M154.993 33.8136C154.993 33.8136 162.518 32.9774 162.986 33.594C163.48 34.2455 157.937 35.4703 157.399 35.1624C156.86 34.8545 154.993 33.8136 154.993 33.8136Z" fill="#F89D83"/>
<path d="M158.101 35.0846C158.101 35.0846 163.956 34.3686 164.163 34.8642C164.572 35.842 158.745 36.656 158.207 36.3481C157.668 36.0402 158.101 35.0846 158.101 35.0846Z" fill="#F89D83"/>
<path d="M157.43 36.19C157.43 36.19 163.501 35.9657 163.88 36.5841C164.444 37.5039 157.749 37.8322 157.28 37.4501C156.811 37.0681 157.43 36.19 157.43 36.19Z" fill="#F89D83"/>
<path d="M156.489 37.5449C156.489 37.5449 162.979 37.6784 162.939 37.9389C162.783 38.9683 156.808 39.1871 156.339 38.805C155.87 38.4234 156.489 37.5449 156.489 37.5449Z" fill="#F89D83"/>
<path d="M154.662 38.5753C154.632 38.5267 154.647 38.4657 154.7 38.4325C155.431 37.9638 155.854 37.3852 155.957 36.711C156.173 35.2897 154.904 33.8995 154.89 33.8872C154.844 33.8433 154.854 33.7673 154.911 33.7277C154.969 33.6885 155.052 33.6974 155.097 33.746C155.154 33.8091 156.449 35.2245 156.219 36.7396C156.107 37.4764 155.649 38.1063 154.858 38.6129C154.8 38.6508 154.717 38.6406 154.673 38.5907C154.669 38.5851 154.666 38.5804 154.662 38.5753Z" fill="#DB8B74"/>
<path d="M159.817 35.0239L159.726 34.7344L157.435 35.27L157.527 35.5591L159.817 35.0239Z" fill="#DE9C75"/>
<path d="M160.779 36.3808L160.729 36.084L158.256 36.3885L158.307 36.6852L160.779 36.3808Z" fill="#DE9C75"/>
<path d="M159.504 37.7856L159.518 37.4862L158.673 37.4551L158.659 37.7549L159.504 37.7856Z" fill="#F89D83"/>
<path d="M150.834 40.4916L152.254 40.0042L151.172 36.209L149.311 36.5621L150.834 40.4916Z" fill="#F89D83"/>
<path d="M137.01 38.4003L149.313 36.5547L150.836 40.4842L138.816 44.4381L137.01 38.4003Z" fill="#F89D83"/>
<path d="M145.221 37.0439L128.834 38.3586C124.476 33.812 120.26 22.4166 109.459 23.3952L109.47 24.0814C109.47 24.0814 117.592 49.3809 126.497 49.386C131.121 49.3886 141.562 45.0292 148.354 42.6075L145.221 37.0439Z" fill="#73767A"/>
<path d="M127.188 42.4828C127.186 42.4828 127.185 42.4828 127.185 42.4828C127.082 42.4802 127.002 42.409 127.004 42.3224C127.054 40.3975 128.616 38.3601 128.682 38.2748C128.74 38.2006 128.856 38.1814 128.938 38.2296C129.022 38.2778 129.047 38.375 128.99 38.4475C128.975 38.4679 127.419 40.4973 127.373 42.328C127.371 42.4141 127.287 42.4828 127.188 42.4828Z" fill="black"/>
<path d="M85.3009 44.0419C85.2669 44.0419 85.2334 44.0338 85.203 44.0172C85.1161 43.972 85.0906 43.8747 85.145 43.8005L88.0064 39.897C88.0578 39.8215 88.1732 39.7998 88.2601 39.8476C88.3465 39.8928 88.3725 39.99 88.3181 40.0642L85.4567 43.9677C85.4227 44.0159 85.3618 44.0419 85.3009 44.0419Z" fill="black"/>
<path d="M100.335 23.28C105.398 23.3768 113.787 20.4153 115.422 36.3458C116.019 42.158 117.738 57.2468 118.596 62.1929C118.777 63.2343 119.364 68.3668 118.507 68.9932C114.319 72.0566 101.878 73.0596 84.4363 65.4359C84.4363 65.4359 84.8478 64.7067 84.72 60.2885C84.6331 57.2805 84.9817 34.3689 84.7135 30.6415C84.6785 30.1566 84.7504 29.6871 84.9287 29.2385C86.1914 26.0651 87.3471 23.0319 100.335 23.28Z" fill="white"/>
<path d="M109.382 29.5796L107.917 28.5059L106.891 30.4116L111.587 45.986L109.382 29.5796Z" fill="#E6E6E6"/>
<path d="M106.892 30.4062L113.119 51.2475L109.808 58.2439L103.322 50.6774L104.204 30.5239L106.892 30.4062Z" fill="#482A28"/>
<path d="M106.01 17.3054L104.965 17.0879C104.965 17.0879 104.673 18.0265 105.687 18.2375C106.702 18.4486 107.054 17.5224 107.054 17.5224L106.01 17.3054Z" fill="white"/>
<path d="M106.236 16.6484C106.228 16.6484 106.222 16.6484 106.214 16.6472C106.166 16.6361 106.138 16.5951 106.15 16.5542C106.184 16.4433 106.265 16.3623 106.371 16.3337C106.457 16.3077 106.541 16.3226 106.597 16.3623C106.801 16.509 107.247 16.5115 107.424 16.4062C107.485 16.3691 107.482 16.3363 107.467 16.3077C107.146 15.602 106.424 14.7048 106.416 14.695C106.389 14.6609 106.399 14.6144 106.44 14.5896C106.478 14.5692 106.536 14.576 106.563 14.6101C106.592 14.6472 107.305 15.5308 107.634 16.2531C107.682 16.3585 107.642 16.46 107.528 16.5299C107.292 16.6698 106.756 16.6753 106.483 16.4791C106.481 16.4779 106.459 16.4698 106.425 16.4791C106.377 16.4928 106.34 16.5324 106.322 16.593C106.312 16.6267 106.276 16.6484 106.236 16.6484Z" fill="black"/>
<path d="M106.063 13.3198C106.063 13.3198 104.992 12.765 104.207 13.2375C103.422 13.7099 103.871 13.8357 103.999 13.8319C104.127 13.8281 105.528 13.3539 105.887 13.6741C105.887 13.6741 106.412 13.7121 106.063 13.3198Z" fill="#482A28"/>
<path d="M107.06 13.2023C107.06 13.2023 108.019 12.5213 108.881 12.8914C109.743 13.2616 109.321 13.4415 109.194 13.4535C109.067 13.4654 107.595 13.1699 107.299 13.5311C107.299 13.5311 106.787 13.6334 107.06 13.2023Z" fill="#482A28"/>
<path d="M107.735 14.302C107.765 14.5139 107.914 14.6721 108.066 14.6555C108.218 14.6389 108.317 14.4534 108.287 14.2414C108.256 14.0295 108.108 13.8713 107.956 13.8879C107.803 13.9045 107.705 14.09 107.735 14.302Z" fill="#482A28"/>
<path d="M104.837 14.6223C104.867 14.8342 105.015 14.9924 105.168 14.9758C105.32 14.9592 105.419 14.7737 105.388 14.5617C105.358 14.3498 105.21 14.1916 105.057 14.2082C104.905 14.2249 104.806 14.4104 104.837 14.6223Z" fill="#482A28"/>
<path d="M107.566 13.9565C107.999 13.8005 108.597 13.5732 108.787 13.2231C108.892 13.0299 108.782 12.8167 108.864 12.615C109.021 12.2278 109.457 11.8333 109.651 11.4304C109.881 10.9523 110.02 10.3703 109.819 9.87731C109.618 9.38351 108.803 8.95623 108.302 8.60954C107.845 8.29313 107.206 8.04495 106.55 8.03557C105.362 8.01851 104.22 7.99932 103.206 8.51743C102.282 8.98906 101.458 8.92169 100.381 8.9639C98.5159 9.0364 97.4206 9.85557 97.4516 11.1583C97.4631 11.641 97.4366 12.1156 97.6524 12.574C97.9335 13.1719 98.8351 14.0891 98.7312 14.742C98.3611 17.0669 99.2041 17.6626 100.499 17.8238C100.975 17.8831 100.719 16.0303 101.046 15.7787C101.89 15.1284 102.499 14.2623 103.505 13.7292C104.231 13.3446 105.287 13.09 106.174 13.212C106.777 13.2951 107.656 13.4116 108.076 13.7433C108.026 13.7565 107.986 13.7497 107.566 13.9565Z" fill="#482A28"/>
<path d="M108.293 10.6991C108.293 10.6991 108.079 12.6488 108.523 13.3123C108.966 13.9754 108.878 18.6832 108.043 19.5164C107.615 19.9433 105.268 19.284 103.316 17.8815C101.364 16.4794 101.202 13.236 101.202 13.236C101.202 13.236 100.516 9.80619 108.293 10.6991Z" fill="#F89D83"/>
<path d="M107.906 23.1698C107.682 21.3195 105.96 11.4473 105.96 11.4473C105.96 11.4473 103.373 12.5091 101.836 13.7363C101.758 13.4451 101.203 13.2366 101.203 13.2366L100.642 13.7632C100.548 13.9252 100.862 14.8664 100.844 15.0237C100.844 15.0237 100.357 18.8142 99.9912 21.1724C99.6276 23.5152 99.8944 24.4299 100.733 25.2832C102.004 26.5757 104.89 27.2145 106.524 26.8516C108.845 26.3356 108.13 25.0201 107.906 23.1698Z" fill="#F89D83"/>
<path d="M109.078 11.2443C109.736 12.2588 105.298 12.5624 104.183 11.9411C104.015 11.8477 103.803 11.8021 103.597 11.7978C103.431 11.7944 103.267 11.8447 103.127 11.9185C102.765 12.1082 102.547 12.4639 102.581 12.8063C102.602 13.0127 102.706 13.2067 102.743 13.4114C102.802 13.7287 102.693 14.0664 102.449 14.3252C102.44 13.9491 101.429 12.5705 100.984 13.8059C100.866 14.1334 101.284 14.4374 101.354 14.77C101.482 15.3738 101.127 15.9823 100.717 16.5077C100.184 16.1696 99.9396 15.6118 99.8467 15.0668C99.6694 14.028 99.9675 12.933 100.672 12.0358C101.377 11.1381 102.482 10.4456 103.732 10.1181C104.317 9.96502 104.928 9.88997 105.539 9.86012C105.98 9.83837 106.432 9.84135 106.845 9.95819C107.315 10.0908 107.696 10.3616 108.157 10.5074C108.378 10.5774 108.522 10.5718 108.686 10.7121C108.857 10.858 108.962 11.0669 109.078 11.2443Z" fill="#482A28"/>
<path d="M105.971 17.03L104.926 16.8125C104.926 16.8125 104.634 17.7511 105.649 17.9622C106.663 18.1732 107.015 17.247 107.015 17.247L105.971 17.03Z" fill="white"/>
<path d="M107.216 16.3434C107.324 16.3272 107.421 16.296 107.49 16.2542C107.604 16.1835 107.643 16.0832 107.595 15.9779C107.266 15.2551 106.556 14.3724 106.524 14.3349C106.497 14.3008 106.442 14.2931 106.401 14.3153C106.36 14.3391 106.35 14.3865 106.379 14.421C106.385 14.4304 107.106 15.3276 107.428 16.0338C107.442 16.0623 107.447 16.0939 107.387 16.131C107.208 16.2372 106.762 16.2342 106.559 16.0888C106.504 16.0483 106.425 16.0346 106.331 16.0589C106.226 16.0884 106.145 16.1685 106.112 16.2794C106.099 16.3203 106.127 16.3621 106.175 16.3724C106.221 16.3813 106.271 16.357 106.283 16.3178C106.302 16.2572 106.338 16.2171 106.387 16.2035C106.41 16.1924 106.442 16.2009 106.445 16.2048C106.636 16.3429 106.96 16.3822 107.216 16.3434Z" fill="#DE9C75"/>
<path d="M106.027 13.0366C106.027 13.0366 104.956 12.4818 104.171 12.9543C103.386 13.4267 103.835 13.5525 103.963 13.5487C104.091 13.5449 105.492 13.0707 105.851 13.3909C105.851 13.3909 106.376 13.4289 106.027 13.0366Z" fill="#482A28"/>
<path d="M107.022 12.9347C107.022 12.9347 107.981 12.2537 108.843 12.6239C109.704 12.994 109.283 13.1735 109.156 13.1859C109.029 13.1978 107.557 12.9023 107.261 13.2635C107.261 13.2635 106.749 13.3658 107.022 12.9347Z" fill="#482A28"/>
<path d="M107.696 14.0227C107.727 14.2346 107.875 14.3928 108.028 14.3762C108.18 14.3596 108.279 14.1741 108.248 13.9621C108.218 13.7502 108.07 13.592 107.917 13.6086C107.765 13.6253 107.666 13.8107 107.696 14.0227Z" fill="#482A28"/>
<path d="M104.797 14.343C104.828 14.5549 104.976 14.7131 105.128 14.6965C105.281 14.6799 105.38 14.4944 105.349 14.2824C105.319 14.0705 105.17 13.9123 105.018 13.9289C104.866 13.946 104.767 14.1311 104.797 14.343Z" fill="#482A28"/>
<path d="M94.7716 87.8104L92.8617 87.7746L92.9566 83.9082L84.0079 83.7466L83.9245 87.1252L82.0151 87.0898L82.14 82.0801L94.908 82.3133L94.7716 87.8104Z" fill="black"/>
<path d="M97.32 23.1406L102.309 29.4496L107.265 42.3849L110.203 71.3164L109.346 78.9162L79.3098 79.6181L85.8856 35.9821C85.8856 35.9821 79.8532 23.8775 97.32 23.1406Z" fill="#83868B"/>
<path d="M90.4537 83.2951C90.4537 83.2951 85.4237 83.0921 85.2849 82.2439C84.696 78.6432 86.2713 76.2168 86.2713 76.2168C86.2713 76.2168 90.4941 76.4479 90.7524 76.5392C91.0106 76.6309 92.3871 77.966 92.5289 79.0781C92.6712 80.1915 90.4537 83.2951 90.4537 83.2951Z" fill="#F89D83"/>
<path d="M91.7637 77.5234C91.7637 77.5234 94.7654 80.9025 94.3543 81.1856C93.9433 81.4688 92.2451 80.4244 92.2451 80.4244L91.7637 77.5234Z" fill="#F89D83"/>
<path d="M92.2485 80.291C92.2485 80.291 89.8741 84.7604 89.1689 84.8858C88.4242 85.0184 89.6409 81.2321 90.0749 80.995C90.5094 80.7584 92.2485 80.291 92.2485 80.291Z" fill="#F89D83"/>
<path d="M89.454 81.6587C89.454 81.6587 88.4491 84.6672 87.9277 84.6718C86.8993 84.6804 87.8048 81.6655 88.2389 81.4284C88.6729 81.1913 89.454 81.6587 89.454 81.6587Z" fill="#F89D83"/>
<path d="M88.2637 80.4316C88.2637 80.4316 87.2179 84.5318 86.5506 84.6448C85.5582 84.8128 86.614 80.3302 87.068 80.1233C87.522 79.9161 88.2637 80.4316 88.2637 80.4316Z" fill="#F89D83"/>
<path d="M86.6636 80.1239C86.6636 80.1239 85.818 84.4061 85.5618 84.3536C84.5499 84.1464 85.0084 80.1307 85.422 79.8949C85.835 79.6591 86.6636 80.1239 86.6636 80.1239Z" fill="#F89D83"/>
<path d="M86.1855 74.9141L86.2705 76.2181L90.8269 76.5622L91.0327 74.9443L86.1855 74.9141Z" fill="#F89D83"/>
<path d="M92.9357 64.4125L91.0328 74.9529L86.1856 74.9227L85.6587 63.9336L92.9357 64.4125Z" fill="#F89D83"/>
<path d="M92.8302 31.5967L91.9842 50.0701C91.9842 50.0701 94.0444 72.5727 94.5923 73.0857C95.1402 73.5987 83.8546 72.8908 83.8546 72.8908L81.2844 49.2799C81.2844 49.2799 82.6654 29.9332 86.4932 26.3474C88.2108 24.7385 89.2347 24.9705 89.9684 24.9837C92.8567 25.0366 92.9431 29.1324 92.8302 31.5967Z" fill="#8B8F94"/>
<path d="M92.423 73.2709L92.379 75.0321L85.3023 74.4918L85.0491 72.8262L92.423 73.2709Z" fill="#A7ACB3"/>
<path d="M62.8536 117.384L117.057 118.365L117.84 86.8261L63.6369 85.8448L62.8536 117.384Z" fill="#614132"/>
<path d="M110.134 12.17C110.085 12.6335 103.294 12.2493 102.667 12.2387C101.872 12.2255 104.416 13.4067 99.42 13.5981C98.1349 13.6476 97.5221 13.2028 97.5221 13.2028C96.3554 8.74281 99.916 6.92154 103.727 7.09083C107.675 7.26609 110.551 8.19186 110.134 12.17Z" fill="#F5972E"/>
<path d="M111.8 12.7468L111.261 11.627L102.145 11.7583L102.049 12.8849L111.8 12.7468Z" fill="#F5972E"/>
<path d="M105.728 11.9911C105.728 11.9911 106.198 8.37456 101.883 8.13278C100.059 8.03043 98.2113 8.32425 97.8557 12.3523L105.728 11.9911Z" fill="#D48228"/>
<path d="M108.331 6.74169L108.377 9.07638L105.927 8.68663L105.671 5.82956C105.671 5.82956 108.458 5.59928 108.331 6.74169Z" fill="#F5B267"/>
<path d="M105.654 5.82818C105.654 5.82818 100.387 5.7834 98.875 8.30573C98.875 8.30573 102.019 6.5079 105.909 8.68567L105.654 5.82818Z" fill="#D48228"/>
<path d="M98.3078 12.8854C98.1744 12.8854 98.0895 12.8854 98.0721 12.8842C98.0241 12.8842 97.9836 12.85 97.9851 12.8074C97.9851 12.7665 98.0251 12.7332 98.0736 12.7332H98.075C98.096 12.7332 100.32 12.7579 101.079 12.5183C101.814 12.2867 102.06 11.7456 102.061 11.74C102.074 11.7098 102.106 11.6906 102.143 11.6906L109.186 11.5469H109.188C109.236 11.5469 109.276 11.5797 109.276 11.6211C109.278 11.662 109.239 11.6978 109.189 11.6978L102.204 11.8415C102.123 11.9908 101.829 12.4432 101.14 12.6607C100.492 12.865 98.9096 12.8854 98.3078 12.8854Z" fill="black"/>
<path d="M97.3206 23.1394L99.0362 20.9023L104.774 26.9197L100.925 29.9665L97.3206 23.1394Z" fill="white"/>
<path d="M115.392 73.8752L110.07 74.6342L110.203 71.3183L114.981 70.4766L115.392 73.8752Z" fill="#482A28"/>
<path d="M108.382 22.4824L107.264 42.3838L116.097 79.0375L125.231 77.8819L120.5 48.666L113.595 24.7587C113.595 24.7587 113.202 22.5182 108.382 22.4824Z" fill="#73767A"/>
<path d="M107.761 22.469L105.781 26.9371L109.384 29.5775L111.076 22.7978L107.588 21.0566L107.761 22.469Z" fill="white"/>
<path d="M104.774 26.9121L105.781 26.9304L107.918 28.4971L103.073 28.6417L104.774 26.9121Z" fill="#482A28"/>
<path d="M107.917 28.5059L106.891 30.4116L104.203 30.5293L103.072 28.6504L107.917 28.5059Z" fill="#482A28"/>
<path d="M82.3737 59.2871L83.8546 72.8906L80.6301 72.3925L82.3737 59.2871Z" fill="#73767A"/>
<path d="M94.5924 73.237C94.5909 73.237 94.5894 73.237 94.5894 73.237L86.2316 73.0865C86.1287 73.0852 86.0488 73.0122 86.0503 72.9261C86.0518 72.84 86.1352 72.7713 86.2351 72.7713C86.2366 72.7713 86.2381 72.7713 86.2381 72.7713L94.3891 72.918L91.9578 51.7531L92.3174 37.188C92.3189 37.1019 92.4023 37.0332 92.5017 37.0332C92.5032 37.0332 92.5052 37.0332 92.5052 37.0332C92.6081 37.0345 92.688 37.1074 92.6865 37.1935L92.3254 51.7407L94.7757 73.0647C94.7822 73.1086 94.7647 73.1538 94.7278 73.1867C94.6938 73.2195 94.6439 73.237 94.5924 73.237Z" fill="black"/>
<path d="M147.24 36.5137L150.13 41.2747L148.05 42.0675L145.223 37.0463L147.24 36.5137Z" fill="#A7ACB3"/>
<path d="M140.047 45.8394C139.977 45.8394 139.907 45.8036 139.879 45.7448C139.837 45.6637 139.88 45.5721 139.974 45.5379L148.107 42.5291L145.239 37.4388C145.195 37.3607 145.234 37.2661 145.325 37.2277C145.417 37.1961 145.527 37.2234 145.572 37.3015L148.522 42.5397C148.543 42.5781 148.546 42.6233 148.529 42.663C148.511 42.7026 148.474 42.7354 148.429 42.7521L140.121 45.8253C140.096 45.8356 140.071 45.8394 140.047 45.8394Z" fill="black"/>
<path d="M111.203 83.1157C111.195 83.1157 111.187 83.1157 111.179 83.1144C111.08 83.1033 111.008 83.024 111.021 82.9379L112.372 73.884C112.385 73.7974 112.483 73.733 112.579 73.7484C112.679 73.7595 112.751 73.8388 112.738 73.9253L111.387 82.9793C111.375 83.0582 111.295 83.1157 111.203 83.1157Z" fill="black"/>
<path d="M102.021 127.518C102.012 127.518 102 127.517 101.991 127.516C101.89 127.502 101.822 127.42 101.84 127.335L103.39 119.596C103.406 119.511 103.504 119.452 103.602 119.467C103.703 119.481 103.77 119.563 103.753 119.648L102.203 127.387C102.188 127.463 102.109 127.518 102.021 127.518Z" fill="black"/>
<path d="M116.097 79.1961C116.01 79.1961 115.935 79.1441 115.918 79.0716L111.565 61.2976C111.544 61.2115 111.607 61.1292 111.707 61.1113C111.806 61.0921 111.904 61.1467 111.925 61.2319L116.242 78.8605L125.204 77.7275C125.33 77.7275 125.399 77.7752 125.415 77.8605C125.429 77.9467 125.36 78.0264 125.259 78.0401L116.124 79.1953C116.115 79.1948 116.105 79.1961 116.097 79.1961Z" fill="black"/>
<path d="M99.3184 79.2484C99.219 79.2484 99.1356 79.1797 99.1336 79.0936C99.1321 79.007 99.212 78.9345 99.3149 78.9332L109.178 78.755L110.019 71.2946L108.947 60.7691C108.938 60.6829 109.013 60.6062 109.114 60.5989C109.119 60.5977 109.126 60.5977 109.13 60.5977C109.225 60.5977 109.305 60.6595 109.313 60.7414L110.385 71.2959L109.529 78.9251C109.521 79.0044 109.444 79.0663 109.349 79.0675L99.3209 79.2484C99.3214 79.2484 99.3199 79.2484 99.3184 79.2484Z" fill="black"/>
<path d="M119.515 44.6842C119.439 44.6842 119.369 44.6445 119.341 44.5814L116.62 38.2856C116.584 38.2033 116.634 38.1129 116.729 38.0831C116.822 38.0502 116.931 38.0954 116.966 38.176L119.688 44.4718C119.723 44.5541 119.673 44.6445 119.579 44.6748C119.558 44.6816 119.536 44.6842 119.515 44.6842Z" fill="black"/>
<path d="M109.384 29.7301C109.34 29.7301 109.297 29.7165 109.263 29.6917L107.798 28.6188C107.721 28.5626 107.711 28.4628 107.778 28.3967C107.846 28.331 107.961 28.3242 108.038 28.38L109.272 29.2845L110.878 23.4326C110.902 23.3478 111.002 23.2945 111.1 23.3149C111.199 23.3354 111.26 23.419 111.238 23.5038L109.562 29.6077C109.547 29.661 109.501 29.705 109.44 29.7216C109.422 29.7276 109.403 29.7301 109.384 29.7301Z" fill="black"/>
<path d="M100.925 30.1238C100.912 30.1238 100.901 30.1225 100.888 30.1212C100.83 30.1102 100.781 30.0773 100.757 30.0308L97.7924 24.4173C97.7505 24.338 97.7924 24.2446 97.8853 24.2092C97.9752 24.1738 98.0876 24.208 98.129 24.2885L100.987 29.7021L104.649 26.804C104.725 26.7439 104.844 26.7478 104.91 26.8122C104.979 26.8753 104.976 26.9751 104.9 27.0343L101.05 30.0816C101.016 30.1084 100.971 30.1238 100.925 30.1238Z" fill="black"/>
<path d="M102.242 18.2109C102.242 18.2109 105.027 19.6344 107.386 19.6484L107.713 21.8501C107.713 21.8501 103.8 20.8586 102.242 18.2109Z" fill="#D68871"/>
<path d="M37.9598 133.411C44.8119 127.561 44.8119 118.076 37.9598 112.225C31.1076 106.375 19.9981 106.375 13.1459 112.225C6.29378 118.076 6.29378 127.561 13.1459 133.411C19.9981 139.262 31.1076 139.262 37.9598 133.411Z" fill="#4BAB8F"/>
<path d="M260.454 62.4062V63.396H274.482V62.4062H260.454ZM260.454 68.9835H274.482V67.9937H260.454V68.9835ZM260.454 74.5701H274.482V73.5804H260.454V74.5701ZM260.454 80.1563H274.482V79.1666H260.454V80.1563Z" fill="white"/>
<path d="M337.673 152.626H262.671C262.57 152.626 262.486 152.555 262.486 152.468C262.486 152.382 262.569 152.311 262.671 152.311H337.673C337.774 152.311 337.857 152.382 337.857 152.468C337.857 152.555 337.774 152.626 337.673 152.626Z" fill="black"/>
<path d="M74.9564 152.309H16.7424V152.66H74.9564V152.309Z" fill="#1A3342"/>
<path d="M304.127 56.7695H288.519V70.095H304.127V56.7695Z" fill="white"/>
<path d="M304.126 73.9043H288.519V87.2298H304.126V73.9043Z" fill="white"/>
<path d="M59.7666 18.2402H58.531V112.604H59.7666V18.2402Z" fill="white"/>
<path d="M63.6539 18.2402H62.4182V112.604H63.6539V18.2402Z" fill="white"/>
<path d="M279.75 64.0117H278.514V130.248H279.75V64.0117Z" fill="#38609D"/>
<path d="M318.853 15.7246H317.617V122.802H318.853V15.7246Z" fill="#38609D"/>
<path d="M180.716 57.2539H179.48V149.953H180.716V57.2539Z" fill="#40917A"/>
<path d="M152.55 94.2891H151.314V126.34H152.55V94.2891Z" fill="#38609D"/>
<path d="M53.0909 0.5625H51.8552V119.466H53.0909V0.5625Z" fill="#38609D"/>
<path d="M73.8606 150.699V151.246C74.893 149.351 75.4858 147.247 75.4858 145.019C75.4858 137.299 68.5589 130.968 59.7232 130.291C57.2199 120.192 46.727 112.611 34.1533 112.611C19.7142 112.611 8.00903 122.605 8.00903 134.933C8.00903 141.088 10.9278 146.661 15.6471 150.699H73.8606V150.699Z" fill="white"/>
<path d="M163.371 126.004H162.135V150.397H163.371V126.004Z" fill="black"/>
<path d="M339.048 150.605V151.081C339.948 149.43 340.465 147.595 340.465 145.654C340.465 138.924 334.427 133.405 326.724 132.814C324.542 124.011 315.395 117.402 304.434 117.402C291.847 117.402 281.642 126.114 281.642 136.862C281.642 142.227 284.187 147.085 288.301 150.605H339.048V150.605Z" fill="white"/>
<path d="M261.557 150.767V151.088C260.952 149.977 260.604 148.743 260.604 147.437C260.604 142.91 264.667 139.197 269.847 138.8C271.315 132.879 277.468 128.434 284.841 128.434C293.308 128.434 300.171 134.294 300.171 141.522C300.171 145.132 298.459 148.399 295.692 150.767H261.557Z" fill="#4BAB8F"/>
</svg>
