<svg width="16" height="18" viewBox="0 0 16 18" fill="none" xmlns="http://www.w3.org/2000/svg">
<path d="M2.16667 17.3327C1.70833 17.3327 1.31597 17.1695 0.989583 16.8431C0.663194 16.5167 0.5 16.1243 0.5 15.666V3.99935C0.5 3.54102 0.663194 3.14865 0.989583 2.82227C1.31597 2.49588 1.70833 2.33268 2.16667 2.33268H3V1.49935C3 1.26324 3.07986 1.06532 3.23958 0.905599C3.39931 0.745877 3.59722 0.666016 3.83333 0.666016C4.06944 0.666016 4.26736 0.745877 4.42708 0.905599C4.58681 1.06532 4.66667 1.26324 4.66667 1.49935V2.33268H11.3333V1.49935C11.3333 1.26324 11.4132 1.06532 11.5729 0.905599C11.7326 0.745877 11.9306 0.666016 12.1667 0.666016C12.4028 0.666016 12.6007 0.745877 12.7604 0.905599C12.9201 1.06532 13 1.26324 13 1.49935V2.33268H13.8333C14.2917 2.33268 14.684 2.49588 15.0104 2.82227C15.3368 3.14865 15.5 3.54102 15.5 3.99935V15.666C15.5 16.1243 15.3368 16.5167 15.0104 16.8431C14.684 17.1695 14.2917 17.3327 13.8333 17.3327H2.16667ZM2.16667 15.666H13.8333V7.33268H2.16667V15.666ZM2.16667 5.66602H13.8333V3.99935H2.16667V5.66602ZM8 10.666C7.76389 10.666 7.56597 10.5862 7.40625 10.4264C7.24653 10.2667 7.16667 10.0688 7.16667 9.83268C7.16667 9.59657 7.24653 9.39865 7.40625 9.23893C7.56597 9.07921 7.76389 8.99935 8 8.99935C8.23611 8.99935 8.43403 9.07921 8.59375 9.23893C8.75347 9.39865 8.83333 9.59657 8.83333 9.83268C8.83333 10.0688 8.75347 10.2667 8.59375 10.4264C8.43403 10.5862 8.23611 10.666 8 10.666ZM4.66667 10.666C4.43056 10.666 4.23264 10.5862 4.07292 10.4264C3.91319 10.2667 3.83333 10.0688 3.83333 9.83268C3.83333 9.59657 3.91319 9.39865 4.07292 9.23893C4.23264 9.07921 4.43056 8.99935 4.66667 8.99935C4.90278 8.99935 5.10069 9.07921 5.26042 9.23893C5.42014 9.39865 5.5 9.59657 5.5 9.83268C5.5 10.0688 5.42014 10.2667 5.26042 10.4264C5.10069 10.5862 4.90278 10.666 4.66667 10.666ZM11.3333 10.666C11.0972 10.666 10.8993 10.5862 10.7396 10.4264C10.5799 10.2667 10.5 10.0688 10.5 9.83268C10.5 9.59657 10.5799 9.39865 10.7396 9.23893C10.8993 9.07921 11.0972 8.99935 11.3333 8.99935C11.5694 8.99935 11.7674 9.07921 11.9271 9.23893C12.0868 9.39865 12.1667 9.59657 12.1667 9.83268C12.1667 10.0688 12.0868 10.2667 11.9271 10.4264C11.7674 10.5862 11.5694 10.666 11.3333 10.666ZM8 13.9993C7.76389 13.9993 7.56597 13.9195 7.40625 13.7598C7.24653 13.6 7.16667 13.4021 7.16667 13.166C7.16667 12.9299 7.24653 12.732 7.40625 12.5723C7.56597 12.4125 7.76389 12.3327 8 12.3327C8.23611 12.3327 8.43403 12.4125 8.59375 12.5723C8.75347 12.732 8.83333 12.9299 8.83333 13.166C8.83333 13.4021 8.75347 13.6 8.59375 13.7598C8.43403 13.9195 8.23611 13.9993 8 13.9993ZM4.66667 13.9993C4.43056 13.9993 4.23264 13.9195 4.07292 13.7598C3.91319 13.6 3.83333 13.4021 3.83333 13.166C3.83333 12.9299 3.91319 12.732 4.07292 12.5723C4.23264 12.4125 4.43056 12.3327 4.66667 12.3327C4.90278 12.3327 5.10069 12.4125 5.26042 12.5723C5.42014 12.732 5.5 12.9299 5.5 13.166C5.5 13.4021 5.42014 13.6 5.26042 13.7598C5.10069 13.9195 4.90278 13.9993 4.66667 13.9993ZM11.3333 13.9993C11.0972 13.9993 10.8993 13.9195 10.7396 13.7598C10.5799 13.6 10.5 13.4021 10.5 13.166C10.5 12.9299 10.5799 12.732 10.7396 12.5723C10.8993 12.4125 11.0972 12.3327 11.3333 12.3327C11.5694 12.3327 11.7674 12.4125 11.9271 12.5723C12.0868 12.732 12.1667 12.9299 12.1667 13.166C12.1667 13.4021 12.0868 13.6 11.9271 13.7598C11.7674 13.9195 11.5694 13.9993 11.3333 13.9993Z" fill="black" fill-opacity="0.4"/>
</svg>
