<svg width="57" height="56" viewBox="0 0 57 56" fill="none" xmlns="http://www.w3.org/2000/svg">
<rect x="4.5" y="4" width="48" height="48" rx="24" fill="#FEE4E2"/>
<rect x="4.5" y="4" width="48" height="48" rx="24" stroke="#FEF3F2" stroke-width="8"/>
<path d="M21.5 37C20.95 37 20.4792 36.8042 20.0875 36.4125C19.6958 36.0208 19.5 35.55 19.5 35V21C19.5 20.45 19.6958 19.9792 20.0875 19.5875C20.4792 19.1958 20.95 19 21.5 19H27.5C27.7833 19 28.0208 19.0958 28.2125 19.2875C28.4042 19.4792 28.5 19.7167 28.5 20C28.5 20.2833 28.4042 20.5208 28.2125 20.7125C28.0208 20.9042 27.7833 21 27.5 21H21.5V35H27.5C27.7833 35 28.0208 35.0958 28.2125 35.2875C28.4042 35.4792 28.5 35.7167 28.5 36C28.5 36.2833 28.4042 36.5208 28.2125 36.7125C28.0208 36.9042 27.7833 37 27.5 37H21.5ZM33.675 29H26.5C26.2167 29 25.9792 28.9042 25.7875 28.7125C25.5958 28.5208 25.5 28.2833 25.5 28C25.5 27.7167 25.5958 27.4792 25.7875 27.2875C25.9792 27.0958 26.2167 27 26.5 27H33.675L31.8 25.125C31.6167 24.9417 31.525 24.7167 31.525 24.45C31.525 24.1833 31.6167 23.95 31.8 23.75C31.9833 23.55 32.2167 23.4458 32.5 23.4375C32.7833 23.4292 33.025 23.525 33.225 23.725L36.8 27.3C37 27.5 37.1 27.7333 37.1 28C37.1 28.2667 37 28.5 36.8 28.7L33.225 32.275C33.025 32.475 32.7875 32.5708 32.5125 32.5625C32.2375 32.5542 32 32.45 31.8 32.25C31.6167 32.05 31.5292 31.8125 31.5375 31.5375C31.5458 31.2625 31.6417 31.0333 31.825 30.85L33.675 29Z" fill="#C31812"/>
</svg>
