<svg width="24" height="16" viewBox="0 0 24 16" fill="none" xmlns="http://www.w3.org/2000/svg">
<path d="M1.5 15.875C1.12812 15.875 0.816406 15.7492 0.564844 15.4977C0.313281 15.2461 0.1875 14.9344 0.1875 14.5625C0.1875 14.1906 0.313281 13.8789 0.564844 13.6273C0.816406 13.3758 1.12812 13.25 1.5 13.25H22.5C22.8719 13.25 23.1836 13.3758 23.4352 13.6273C23.6867 13.8789 23.8125 14.1906 23.8125 14.5625C23.8125 14.9344 23.6867 15.2461 23.4352 15.4977C23.1836 15.7492 22.8719 15.875 22.5 15.875H1.5ZM1.5 9.3125C1.12812 9.3125 0.816406 9.18672 0.564844 8.93516C0.313281 8.68359 0.1875 8.37187 0.1875 8C0.1875 7.62812 0.313281 7.31641 0.564844 7.06484C0.816406 6.81328 1.12812 6.6875 1.5 6.6875H22.5C22.8719 6.6875 23.1836 6.81328 23.4352 7.06484C23.6867 7.31641 23.8125 7.62812 23.8125 8C23.8125 8.37187 23.6867 8.68359 23.4352 8.93516C23.1836 9.18672 22.8719 9.3125 22.5 9.3125H1.5ZM1.5 2.75C1.12812 2.75 0.816406 2.62422 0.564844 2.37266C0.313281 2.12109 0.1875 1.80937 0.1875 1.4375C0.1875 1.06562 0.313281 0.753906 0.564844 0.502344C0.816406 0.250781 1.12812 0.125 1.5 0.125H22.5C22.8719 0.125 23.1836 0.250781 23.4352 0.502344C23.6867 0.753906 23.8125 1.06562 23.8125 1.4375C23.8125 1.80937 23.6867 2.12109 23.4352 2.37266C23.1836 2.62422 22.8719 2.75 22.5 2.75H1.5Z" fill="black" fill-opacity="0.6"/>
</svg>
