<svg width="45" height="58" viewBox="0 0 45 58" fill="none" xmlns="http://www.w3.org/2000/svg">
<path d="M20.769 45.875V47.5768C20.769 47.9228 20.899 48.2257 21.159 48.4858C21.4185 48.7453 21.7213 48.875 22.0673 48.875H23.9138C24.2753 48.875 24.5915 48.7395 24.8625 48.4685C25.1335 48.197 25.269 47.8805 25.269 47.519V45.875H29.019C29.6565 45.875 30.191 45.6593 30.6225 45.2278C31.0535 44.7968 31.269 44.2625 31.269 43.625V34.625C31.269 33.9875 31.0535 33.4533 30.6225 33.0223C30.191 32.5908 29.6565 32.375 29.019 32.375H19.269V27.875H29.019C29.6565 27.875 30.191 27.6593 30.6225 27.2278C31.0535 26.7963 31.269 26.2618 31.269 25.6243C31.269 24.9862 31.0535 24.452 30.6225 24.0215C30.191 23.5905 29.6565 23.375 29.019 23.375H25.269V21.6733C25.269 21.3267 25.1393 21.0238 24.8798 20.7643C24.6203 20.5048 24.3175 20.375 23.9715 20.375H22.125C21.7635 20.375 21.4473 20.5105 21.1763 20.7815C20.9048 21.053 20.769 21.3695 20.769 21.731V23.375H17.019C16.3815 23.375 15.8472 23.5908 15.4162 24.0223C14.9847 24.4533 14.769 24.9875 14.769 25.625V34.625C14.769 35.2625 14.9847 35.7968 15.4162 36.2278C15.8472 36.6593 16.3815 36.875 17.019 36.875H26.769V41.375H17.019C16.3815 41.375 15.8472 41.5908 15.4162 42.0223C14.9847 42.4538 14.769 42.9883 14.769 43.6258C14.769 44.2638 14.9847 44.798 15.4162 45.2285C15.8472 45.6595 16.3815 45.875 17.019 45.875H20.769ZM5.42325 57.5C3.90775 57.5 2.625 56.975 1.575 55.925C0.525 54.875 0 53.5923 0 52.0768V5.92325C0 4.40775 0.525 3.125 1.575 2.075C2.625 1.025 3.90775 0.5 5.42325 0.5H31.0958L45 14.4043V52.0768C45 53.5923 44.475 54.875 43.425 55.925C42.375 56.975 41.0923 57.5 39.5768 57.5H5.42325ZM5.42325 53H39.5768C39.8078 53 40.0193 52.9038 40.2113 52.7113C40.4038 52.5193 40.5 52.3078 40.5 52.0768V16.6535H31.5578C30.7893 16.6535 30.1453 16.3938 29.6258 15.8742C29.1063 15.3547 28.8465 14.7107 28.8465 13.9422V5H5.42325C5.19225 5 4.98075 5.09625 4.78875 5.28875C4.59625 5.48075 4.5 5.69225 4.5 5.92325V52.0768C4.5 52.3078 4.59625 52.5193 4.78875 52.7113C4.98075 52.9038 5.19225 53 5.42325 53Z" fill="black" fill-opacity="0.4"/>
</svg>
