<svg width="14" height="16" viewBox="0 0 14 16" fill="none" xmlns="http://www.w3.org/2000/svg">
<path d="M6.51917 12.6882V13.1609C6.51917 13.257 6.55528 13.3411 6.6275 13.4134C6.69958 13.4854 6.78368 13.5215 6.87979 13.5215H7.39271C7.49313 13.5215 7.58097 13.4838 7.65625 13.4086C7.73153 13.3332 7.76917 13.2452 7.76917 13.1448V12.6882H8.81083C8.98792 12.6882 9.13639 12.6282 9.25625 12.5084C9.37597 12.3886 9.43583 12.2402 9.43583 12.0632V9.56315C9.43583 9.38607 9.37597 9.23766 9.25625 9.11794C9.13639 8.99808 8.98792 8.93815 8.81083 8.93815H6.1025V7.68815H8.81083C8.98792 7.68815 9.13639 7.62822 9.25625 7.50836C9.37597 7.3885 9.43583 7.24003 9.43583 7.06294C9.43583 6.88572 9.37597 6.73732 9.25625 6.61773C9.13639 6.49801 8.98792 6.43815 8.81083 6.43815H7.76917V5.96544C7.76917 5.86919 7.73313 5.78503 7.66104 5.71294C7.58896 5.64086 7.50486 5.60482 7.40875 5.60482H6.89583C6.79542 5.60482 6.70757 5.64246 6.63229 5.71773C6.55688 5.79315 6.51917 5.88107 6.51917 5.98148V6.43815H5.4775C5.30042 6.43815 5.15201 6.49808 5.03229 6.61794C4.91243 6.73766 4.8525 6.88607 4.8525 7.06315V9.56315C4.8525 9.74023 4.91243 9.88864 5.03229 10.0084C5.15201 10.1282 5.30042 10.1882 5.4775 10.1882H8.18583V11.4382H5.4775C5.30042 11.4382 5.15201 11.4981 5.03229 11.6179C4.91243 11.7378 4.8525 11.8863 4.8525 12.0634C4.8525 12.2406 4.91243 12.389 5.03229 12.5086C5.15201 12.6283 5.30042 12.6882 5.4775 12.6882H6.51917ZM2.25646 15.9173C1.83549 15.9173 1.47917 15.7715 1.1875 15.4798C0.895833 15.1882 0.75 14.8318 0.75 14.4109V1.59044C0.75 1.16947 0.895833 0.813151 1.1875 0.521484C1.47917 0.229818 1.83549 0.0839844 2.25646 0.0839844H9.38771L13.25 3.94628V14.4109C13.25 14.8318 13.1042 15.1882 12.8125 15.4798C12.5208 15.7715 12.1645 15.9173 11.7435 15.9173H2.25646ZM2.25646 14.6673H11.7435C11.8077 14.6673 11.8665 14.6406 11.9198 14.5871C11.9733 14.5338 12 14.475 12 14.4109V4.57107H9.51604C9.30257 4.57107 9.12368 4.49891 8.97938 4.35461C8.83507 4.2103 8.76292 4.03141 8.76292 3.81794V1.33398H2.25646C2.19229 1.33398 2.13354 1.36072 2.08021 1.41419C2.02674 1.46753 2 1.52628 2 1.59044V14.4109C2 14.475 2.02674 14.5338 2.08021 14.5871C2.13354 14.6406 2.19229 14.6673 2.25646 14.6673Z" fill="black" fill-opacity="0.8"/>
</svg>
