<svg width="16" height="17" viewBox="0 0 16 17" fill="none" xmlns="http://www.w3.org/2000/svg">
<path d="M2.79158 12.5419V7.5419C2.79158 7.36482 2.85151 7.21634 2.97137 7.09648C3.09123 6.97676 3.2397 6.9169 3.41678 6.9169C3.59401 6.9169 3.74248 6.97676 3.8622 7.09648C3.98178 7.21634 4.04158 7.36482 4.04158 7.5419V12.5419C4.04158 12.719 3.98165 12.8675 3.86178 12.9873C3.74192 13.107 3.59345 13.1669 3.41637 13.1669C3.23915 13.1669 3.09074 13.107 2.97116 12.9873C2.85144 12.8675 2.79158 12.719 2.79158 12.5419ZM7.37491 12.5419V7.5419C7.37491 7.36482 7.43484 7.21634 7.5547 7.09648C7.67456 6.97676 7.82303 6.9169 8.00012 6.9169C8.17734 6.9169 8.32574 6.97676 8.44533 7.09648C8.56505 7.21634 8.62491 7.36482 8.62491 7.5419V12.5419C8.62491 12.719 8.56498 12.8675 8.44512 12.9873C8.32526 13.107 8.17678 13.1669 7.9997 13.1669C7.82248 13.1669 7.67408 13.107 7.55449 12.9873C7.43477 12.8675 7.37491 12.719 7.37491 12.5419ZM0.932617 16.0836C0.755534 16.0836 0.607131 16.0236 0.487409 15.9038C0.367548 15.7839 0.307617 15.6354 0.307617 15.4584C0.307617 15.2811 0.367548 15.1327 0.487409 15.0131C0.607131 14.8934 0.755534 14.8336 0.932617 14.8336H15.0672C15.2443 14.8336 15.3927 14.8935 15.5124 15.0134C15.6323 15.1332 15.6922 15.2817 15.6922 15.4588C15.6922 15.636 15.6323 15.7844 15.5124 15.904C15.3927 16.0237 15.2443 16.0836 15.0672 16.0836H0.932617ZM11.9582 12.5419V7.5419C11.9582 7.36482 12.0182 7.21634 12.138 7.09648C12.2579 6.97676 12.4064 6.9169 12.5835 6.9169C12.7607 6.9169 12.9091 6.97676 13.0287 7.09648C13.1484 7.21634 13.2082 7.36482 13.2082 7.5419V12.5419C13.2082 12.719 13.1483 12.8675 13.0285 12.9873C12.9086 13.107 12.7601 13.1669 12.583 13.1669C12.4058 13.1669 12.2573 13.107 12.1376 12.9873C12.018 12.8675 11.9582 12.719 11.9582 12.5419ZM15.0993 5.25023H0.841367C0.693034 5.25023 0.566992 5.19843 0.463242 5.09482C0.359492 4.99134 0.307617 4.86558 0.307617 4.71753V4.39211C0.307617 4.28364 0.33477 4.1901 0.389076 4.11148C0.44352 4.03301 0.515187 3.96919 0.604076 3.92003L7.33803 0.625234C7.54609 0.524817 7.76637 0.474609 7.99887 0.474609C8.23137 0.474609 8.45234 0.524817 8.66178 0.625234L15.362 3.89919C15.4667 3.95266 15.5479 4.02746 15.6055 4.12357C15.6633 4.21982 15.6922 4.32315 15.6922 4.43357V4.6594C15.6922 4.82996 15.6364 4.97107 15.5247 5.08273C15.413 5.1944 15.2712 5.25023 15.0993 5.25023ZM3.26262 4.00023H12.7372L8.1122 1.75669C8.0747 1.74058 8.03727 1.73253 7.99991 1.73253C7.96255 1.73253 7.92512 1.74058 7.88762 1.75669L3.26262 4.00023Z" fill="black" fill-opacity="0.8"/>
</svg>
