<svg width="16" height="16" viewBox="0 0 16 16" fill="none" xmlns="http://www.w3.org/2000/svg">
<path d="M2.16667 15.5C1.70833 15.5 1.31597 15.3368 0.989583 15.0104C0.663194 14.684 0.5 14.2917 0.5 13.8333V2.16667C0.5 1.70833 0.663194 1.31597 0.989583 0.989583C1.31597 0.663194 1.70833 0.5 2.16667 0.5H7.16667C7.40278 0.5 7.60069 0.579861 7.76042 0.739583C7.92014 0.899306 8 1.09722 8 1.33333C8 1.56944 7.92014 1.76736 7.76042 1.92708C7.60069 2.08681 7.40278 2.16667 7.16667 2.16667H2.16667V13.8333H7.16667C7.40278 13.8333 7.60069 13.9132 7.76042 14.0729C7.92014 14.2326 8 14.4306 8 14.6667C8 14.9028 7.92014 15.1007 7.76042 15.2604C7.60069 15.4201 7.40278 15.5 7.16667 15.5H2.16667ZM12.3125 8.83333H6.33333C6.09722 8.83333 5.89931 8.75347 5.73958 8.59375C5.57986 8.43403 5.5 8.23611 5.5 8C5.5 7.76389 5.57986 7.56597 5.73958 7.40625C5.89931 7.24653 6.09722 7.16667 6.33333 7.16667H12.3125L10.75 5.60417C10.5972 5.45139 10.5208 5.26389 10.5208 5.04167C10.5208 4.81944 10.5972 4.625 10.75 4.45833C10.9028 4.29167 11.0972 4.20486 11.3333 4.19792C11.5694 4.19097 11.7708 4.27083 11.9375 4.4375L14.9167 7.41667C15.0833 7.58333 15.1667 7.77778 15.1667 8C15.1667 8.22222 15.0833 8.41667 14.9167 8.58333L11.9375 11.5625C11.7708 11.7292 11.5729 11.809 11.3438 11.8021C11.1146 11.7951 10.9167 11.7083 10.75 11.5417C10.5972 11.375 10.5243 11.1771 10.5312 10.9479C10.5382 10.7188 10.6181 10.5278 10.7708 10.375L12.3125 8.83333Z" fill="black" fill-opacity="0.8"/>
</svg>
