<svg width="12" height="12" viewBox="0 0 12 12" fill="none" xmlns="http://www.w3.org/2000/svg">
<path d="M6.00006 8.64097C5.90676 8.64097 5.81993 8.62607 5.73954 8.59626C5.65915 8.56659 5.5827 8.51549 5.51018 8.44297L3.10283 6.03562C2.98773 5.92039 2.93089 5.78562 2.93231 5.63129C2.93386 5.47697 2.9907 5.33975 3.10283 5.21962C3.22296 5.09962 3.36089 5.03762 3.51664 5.03362C3.67251 5.02962 3.81051 5.08768 3.93064 5.20781L5.41941 6.69659V0.774005C5.41941 0.60923 5.47502 0.471295 5.58625 0.360198C5.69735 0.248972 5.83528 0.193359 6.00006 0.193359C6.16483 0.193359 6.30276 0.248972 6.41386 0.360198C6.52509 0.471295 6.5807 0.60923 6.5807 0.774005V6.69659L8.06947 5.20781C8.1847 5.09271 8.32141 5.03588 8.4796 5.0373C8.63793 5.03884 8.77715 5.09962 8.89728 5.21962C9.00941 5.33975 9.06747 5.47575 9.07148 5.62762C9.07547 5.77949 9.01741 5.91549 8.89728 6.03562L6.48993 8.44297C6.41741 8.51549 6.34096 8.56659 6.26057 8.59626C6.18018 8.62607 6.09335 8.64097 6.00006 8.64097ZM1.59315 11.8063C1.20206 11.8063 0.871023 11.6708 0.600055 11.3998C0.329087 11.1288 0.193604 10.7978 0.193604 10.4067V8.88813C0.193604 8.72336 0.249216 8.58542 0.360442 8.47433C0.471539 8.3631 0.609474 8.30749 0.774249 8.30749C0.939023 8.30749 1.07696 8.3631 1.18806 8.47433C1.29928 8.58542 1.35489 8.72336 1.35489 8.88813V10.4067C1.35489 10.4663 1.37973 10.5209 1.42941 10.5705C1.47896 10.6201 1.53354 10.645 1.59315 10.645H10.407C10.4666 10.645 10.5212 10.6201 10.5707 10.5705C10.6204 10.5209 10.6452 10.4663 10.6452 10.4067V8.88813C10.6452 8.72336 10.7008 8.58542 10.8121 8.47433C10.9232 8.3631 11.0611 8.30749 11.2259 8.30749C11.3906 8.30749 11.5286 8.3631 11.6397 8.47433C11.7509 8.58542 11.8065 8.72336 11.8065 8.88813V10.4067C11.8065 10.7978 11.671 11.1288 11.4001 11.3998C11.1291 11.6708 10.7981 11.8063 10.407 11.8063H1.59315Z" fill="white"/>
</svg>
