<svg width="20" height="20" viewBox="0 0 20 20" fill="none" xmlns="http://www.w3.org/2000/svg">
<path d="M4.99983 16.6667C4.5415 16.6667 4.14914 16.5035 3.82275 16.1771C3.49636 15.8507 3.33317 15.4583 3.33317 15V13.3333C3.33317 13.0972 3.41303 12.8993 3.57275 12.7396C3.73247 12.5799 3.93039 12.5 4.1665 12.5C4.40261 12.5 4.60053 12.5799 4.76025 12.7396C4.91997 12.8993 4.99983 13.0972 4.99983 13.3333V15H14.9998V13.3333C14.9998 13.0972 15.0797 12.8993 15.2394 12.7396C15.3991 12.5799 15.5971 12.5 15.8332 12.5C16.0693 12.5 16.2672 12.5799 16.4269 12.7396C16.5866 12.8993 16.6665 13.0972 16.6665 13.3333V15C16.6665 15.4583 16.5033 15.8507 16.1769 16.1771C15.8505 16.5035 15.4582 16.6667 14.9998 16.6667H4.99983ZM9.1665 6.54167L7.604 8.10417C7.43733 8.27083 7.23942 8.35069 7.01025 8.34375C6.78108 8.33681 6.58317 8.25 6.4165 8.08333C6.26372 7.91667 6.18386 7.72222 6.17692 7.5C6.16997 7.27778 6.24983 7.08333 6.4165 6.91667L9.4165 3.91667C9.49983 3.83333 9.59011 3.77431 9.68733 3.73958C9.78456 3.70486 9.88872 3.6875 9.99983 3.6875C10.1109 3.6875 10.2151 3.70486 10.3123 3.73958C10.4096 3.77431 10.4998 3.83333 10.5832 3.91667L13.5832 6.91667C13.7498 7.08333 13.8297 7.27778 13.8228 7.5C13.8158 7.72222 13.7359 7.91667 13.5832 8.08333C13.4165 8.25 13.2186 8.33681 12.9894 8.34375C12.7603 8.35069 12.5623 8.27083 12.3957 8.10417L10.8332 6.54167V12.5C10.8332 12.7361 10.7533 12.934 10.5936 13.0937C10.4339 13.2535 10.2359 13.3333 9.99983 13.3333C9.76372 13.3333 9.56581 13.2535 9.40608 13.0937C9.24636 12.934 9.1665 12.7361 9.1665 12.5V6.54167Z" fill="#603EA4"/>
</svg>
