<svg width="24" height="24" viewBox="0 0 24 24" fill="none" xmlns="http://www.w3.org/2000/svg">
<path d="M11.423 17.625V18.1923C11.423 18.3076 11.4663 18.4086 11.553 18.4952C11.6395 18.5818 11.7404 18.625 11.8558 18.625H12.4713C12.5918 18.625 12.6972 18.5798 12.7875 18.4895C12.8778 18.399 12.923 18.2935 12.923 18.173V17.625H14.173C14.3855 17.625 14.5637 17.5531 14.7075 17.4093C14.8512 17.2656 14.923 17.0875 14.923 16.875V13.875C14.923 13.6625 14.8512 13.4844 14.7075 13.3408C14.5637 13.1969 14.3855 13.125 14.173 13.125H10.923V11.625H14.173C14.3855 11.625 14.5637 11.5531 14.7075 11.4093C14.8512 11.2654 14.923 11.0872 14.923 10.8748C14.923 10.6621 14.8512 10.484 14.7075 10.3405C14.5637 10.1968 14.3855 10.125 14.173 10.125H12.923V9.55775C12.923 9.44225 12.8798 9.34125 12.7933 9.25475C12.7068 9.16825 12.6058 9.125 12.4905 9.125H11.875C11.7545 9.125 11.6491 9.17017 11.5588 9.2605C11.4683 9.351 11.423 9.4565 11.423 9.577V10.125H10.173C9.9605 10.125 9.78242 10.1969 9.63875 10.3408C9.49492 10.4844 9.423 10.6625 9.423 10.875V13.875C9.423 14.0875 9.49492 14.2656 9.63875 14.4093C9.78242 14.5531 9.9605 14.625 10.173 14.625H13.423V16.125H10.173C9.9605 16.125 9.78242 16.1969 9.63875 16.3408C9.49492 16.4846 9.423 16.6628 9.423 16.8753C9.423 17.0879 9.49492 17.266 9.63875 17.4095C9.78242 17.5532 9.9605 17.625 10.173 17.625H11.423ZM6.30775 21.5C5.80258 21.5 5.375 21.325 5.025 20.975C4.675 20.625 4.5 20.1974 4.5 19.6923V4.30775C4.5 3.80258 4.675 3.375 5.025 3.025C5.375 2.675 5.80258 2.5 6.30775 2.5H14.8652L19.5 7.13475V19.6923C19.5 20.1974 19.325 20.625 18.975 20.975C18.625 21.325 18.1974 21.5 17.6923 21.5H6.30775ZM14.1155 4V6.98075C14.1155 7.23692 14.2021 7.45158 14.3753 7.62475C14.5484 7.79792 14.7631 7.8845 15.0193 7.8845H18L14.1155 4Z" fill="#603EA4"/>
</svg>
