<svg width="16" height="20" viewBox="0 0 16 20" fill="none" xmlns="http://www.w3.org/2000/svg">
<path d="M7.423 15.625V16.1923C7.423 16.3076 7.46633 16.4086 7.553 16.4952C7.6395 16.5818 7.74042 16.625 7.85575 16.625H8.47125C8.59175 16.625 8.69717 16.5798 8.7875 16.4895C8.87783 16.399 8.923 16.2935 8.923 16.173V15.625H10.173C10.3855 15.625 10.5637 15.5531 10.7075 15.4093C10.8512 15.2656 10.923 15.0875 10.923 14.875V11.875C10.923 11.6625 10.8512 11.4844 10.7075 11.3408C10.5637 11.1969 10.3855 11.125 10.173 11.125H6.923V9.625H10.173C10.3855 9.625 10.5637 9.55308 10.7075 9.40925C10.8512 9.26542 10.923 9.08725 10.923 8.87475C10.923 8.66208 10.8512 8.484 10.7075 8.3405C10.5637 8.19683 10.3855 8.125 10.173 8.125H8.923V7.55775C8.923 7.44225 8.87975 7.34125 8.79325 7.25475C8.70675 7.16825 8.60583 7.125 8.4905 7.125H7.875C7.7545 7.125 7.64908 7.17017 7.55875 7.2605C7.46825 7.351 7.423 7.4565 7.423 7.577V8.125H6.173C5.9605 8.125 5.78242 8.19692 5.63875 8.34075C5.49492 8.48442 5.423 8.6625 5.423 8.875V11.875C5.423 12.0875 5.49492 12.2656 5.63875 12.4093C5.78242 12.5531 5.9605 12.625 6.173 12.625H9.423V14.125H6.173C5.9605 14.125 5.78242 14.1969 5.63875 14.3408C5.49492 14.4846 5.423 14.6628 5.423 14.8753C5.423 15.0879 5.49492 15.266 5.63875 15.4095C5.78242 15.5532 5.9605 15.625 6.173 15.625H7.423ZM2.30775 19.5C1.80258 19.5 1.375 19.325 1.025 18.975C0.675 18.625 0.5 18.1974 0.5 17.6923V2.30775C0.5 1.80258 0.675 1.375 1.025 1.025C1.375 0.675 1.80258 0.5 2.30775 0.5H10.8652L15.5 5.13475V17.6923C15.5 18.1974 15.325 18.625 14.975 18.975C14.625 19.325 14.1974 19.5 13.6923 19.5H2.30775ZM2.30775 18H13.6923C13.7692 18 13.8398 17.9679 13.9038 17.9038C13.9679 17.8398 14 17.7693 14 17.6923V5.8845H11.0193C10.7631 5.8845 10.5484 5.79792 10.3753 5.62475C10.2021 5.45158 10.1155 5.23692 10.1155 4.98075V2H2.30775C2.23075 2 2.16025 2.03208 2.09625 2.09625C2.03208 2.16025 2 2.23075 2 2.30775V17.6923C2 17.7693 2.03208 17.8398 2.09625 17.9038C2.16025 17.9679 2.23075 18 2.30775 18Z" fill="black" fill-opacity="0.6"/>
</svg>
