<svg width="16" height="16" viewBox="0 0 16 16" fill="none" xmlns="http://www.w3.org/2000/svg">
<path d="M8 7.69238C7.03467 7.69238 6.21 7.35038 5.526 6.66638C4.842 5.98255 4.5 5.15788 4.5 4.19238C4.5 3.22705 4.842 2.40238 5.526 1.71838C6.21 1.03438 7.03467 0.692383 8 0.692383C8.96533 0.692383 9.79 1.03438 10.474 1.71838C11.158 2.40238 11.5 3.22705 11.5 4.19238C11.5 5.15788 11.158 5.98255 10.474 6.66638C9.79 7.35038 8.96533 7.69238 8 7.69238ZM0.5 13.7886V13.0846C0.5 12.595 0.633 12.1415 0.899 11.7241C1.165 11.3068 1.5205 10.986 1.9655 10.7616C2.95383 10.2771 3.95092 9.91372 4.95675 9.67138C5.96258 9.42905 6.977 9.30788 8 9.30788C9.023 9.30788 10.0374 9.42905 11.0433 9.67138C12.0491 9.91372 13.0462 10.2771 14.0345 10.7616C14.4795 10.986 14.835 11.3068 15.101 11.7241C15.367 12.1415 15.5 12.595 15.5 13.0846V13.7886C15.5 14.2103 15.3523 14.569 15.0568 14.8646C14.7613 15.1601 14.4026 15.3079 13.9808 15.3079H2.01925C1.59742 15.3079 1.23875 15.1601 0.94325 14.8646C0.64775 14.569 0.5 14.2103 0.5 13.7886Z" fill="#603EA4"/>
</svg>
