<svg width="16" height="20" viewBox="0 0 16 20" fill="none" xmlns="http://www.w3.org/2000/svg">
<path d="M5 15.75H11C11.2128 15.75 11.391 15.6782 11.5345 15.5345C11.6782 15.391 11.75 15.2128 11.75 15C11.75 14.7872 11.6782 14.609 11.5345 14.4655C11.391 14.3218 11.2128 14.25 11 14.25H5C4.78717 14.25 4.609 14.3218 4.4655 14.4655C4.32183 14.609 4.25 14.7872 4.25 15C4.25 15.2128 4.32183 15.391 4.4655 15.5345C4.609 15.6782 4.78717 15.75 5 15.75ZM5 11.75H11C11.2128 11.75 11.391 11.6782 11.5345 11.5345C11.6782 11.391 11.75 11.2128 11.75 11C11.75 10.7872 11.6782 10.609 11.5345 10.4655C11.391 10.3218 11.2128 10.25 11 10.25H5C4.78717 10.25 4.609 10.3218 4.4655 10.4655C4.32183 10.609 4.25 10.7872 4.25 11C4.25 11.2128 4.32183 11.391 4.4655 11.5345C4.609 11.6782 4.78717 11.75 5 11.75ZM2.30775 19.5C1.80258 19.5 1.375 19.325 1.025 18.975C0.675 18.625 0.5 18.1974 0.5 17.6923V2.30775C0.5 1.80258 0.675 1.375 1.025 1.025C1.375 0.675 1.80258 0.5 2.30775 0.5H9.502C9.743 0.5 9.97475 0.546833 10.1973 0.6405C10.4196 0.734 10.6128 0.862834 10.777 1.027L14.973 5.223C15.1372 5.38717 15.266 5.58042 15.3595 5.80275C15.4532 6.02525 15.5 6.257 15.5 6.498V17.6923C15.5 18.1974 15.325 18.625 14.975 18.975C14.625 19.325 14.1974 19.5 13.6923 19.5H2.30775ZM9.5 5.596V2H2.30775C2.23075 2 2.16025 2.03208 2.09625 2.09625C2.03208 2.16025 2 2.23075 2 2.30775V17.6923C2 17.7693 2.03208 17.8398 2.09625 17.9038C2.16025 17.9679 2.23075 18 2.30775 18H13.6923C13.7692 18 13.8398 17.9679 13.9038 17.9038C13.9679 17.8398 14 17.7693 14 17.6923V6.5H10.404C10.1462 6.5 9.93108 6.41375 9.75875 6.24125C9.58625 6.06892 9.5 5.85383 9.5 5.596Z" fill="black" fill-opacity="0.6"/>
</svg>
